<svg width="397" height="96" viewBox="0 0 397 96" fill="none" xmlns="http://www.w3.org/2000/svg">
    <path d="M0 0H2.23034V2.23256H0V0Z" fill="#1E1E1E"/>
    <path d="M0 6.69851H2.23034V8.93107H0V6.69851Z" fill="#1E1E1E"/>
    <path d="M0 13.396H2.23034V15.6286H0V13.396Z" fill="#1E1E1E"/>
    <path d="M0 20.0936H2.23034V22.3261H0V20.0936Z" fill="#1E1E1E"/>
    <path d="M0 26.7911H2.23034V29.0237H0V26.7911Z" fill="#1E1E1E"/>
    <path d="M0 33.4891H2.23034V35.7217H0V33.4891Z" fill="#1E1E1E"/>
    <path d="M0 40.1867H2.23034V42.4192H0V40.1867Z" fill="#1E1E1E"/>
    <path d="M0 46.8837H2.23034V49.1163H0V46.8837Z" fill="#1E1E1E"/>
    <path d="M0 53.5822H2.23034V55.8148H0V53.5822Z" fill="#1E1E1E"/>
    <path d="M0 60.2798H2.23034V62.5123H0V60.2798Z" fill="#1E1E1E"/>
    <path d="M0 66.9773H2.23034V69.2099H0V66.9773Z" fill="#1E1E1E"/>
    <path d="M0 73.6748H2.23034V75.9074H0V73.6748Z" fill="#1E1E1E"/>
    <path d="M0 80.3729H2.23034V82.6054H0V80.3729Z" fill="#1E1E1E"/>
    <path d="M0 87.0704H2.23034V89.303H0V87.0704Z" fill="#1E1E1E"/>
    <path d="M0 93.7674H2.23034V96H0V93.7674Z" fill="#1E1E1E"/>
    <path d="M6.69087 0H8.92121V2.23256H6.69087V0Z" fill="#1E1E1E"/>
    <path d="M6.69087 6.69851H8.92121V8.93107H6.69087V6.69851Z" fill="#1E1E1E"/>
    <path d="M6.69087 13.396H8.92121V15.6286H6.69087V13.396Z" fill="#1E1E1E"/>
    <path d="M6.69087 20.0936H8.92121V22.3261H6.69087V20.0936Z" fill="#1E1E1E"/>
    <path d="M6.69087 26.7911H8.92121V29.0237H6.69087V26.7911Z" fill="#1E1E1E"/>
    <path d="M6.69087 33.4891H8.92121V35.7217H6.69087V33.4891Z" fill="#1E1E1E"/>
    <path d="M6.69087 40.1867H8.92121V42.4192H6.69087V40.1867Z" fill="#1E1E1E"/>
    <path d="M6.69087 46.8837H8.92121V49.1163H6.69087V46.8837Z" fill="#1E1E1E"/>
    <path d="M6.69087 53.5822H8.92121V55.8148H6.69087V53.5822Z" fill="#1E1E1E"/>
    <path d="M6.69087 60.2798H8.92121V62.5123H6.69087V60.2798Z" fill="#1E1E1E"/>
    <path d="M6.69087 66.9773H8.92121V69.2099H6.69087V66.9773Z" fill="#1E1E1E"/>
    <path d="M6.69087 73.6748H8.92121V75.9074H6.69087V73.6748Z" fill="#1E1E1E"/>
    <path d="M6.69087 80.3729H8.92121V82.6054H6.69087V80.3729Z" fill="#1E1E1E"/>
    <path d="M6.69087 87.0704H8.92121V89.303H6.69087V87.0704Z" fill="#1E1E1E"/>
    <path d="M6.69087 93.7674H8.92121V96H6.69087V93.7674Z" fill="#1E1E1E"/>
    <path d="M13.3817 0H15.6121V2.23256H13.3817V0Z" fill="#1E1E1E"/>
    <path d="M13.3817 6.69851H15.6121V8.93107H13.3817V6.69851Z" fill="#1E1E1E"/>
    <path d="M13.3817 13.396H15.6121V15.6286H13.3817V13.396Z" fill="#1E1E1E"/>
    <path d="M13.3817 20.0936H15.6121V22.3261H13.3817V20.0936Z" fill="#1E1E1E"/>
    <path d="M13.3817 26.7911H15.6121V29.0237H13.3817V26.7911Z" fill="#1E1E1E"/>
    <path d="M13.3817 33.4891H15.6121V35.7217H13.3817V33.4891Z" fill="#1E1E1E"/>
    <path d="M13.3817 40.1867H15.6121V42.4192H13.3817V40.1867Z" fill="#1E1E1E"/>
    <path d="M13.3817 46.8837H15.6121V49.1163H13.3817V46.8837Z" fill="#1E1E1E"/>
    <path d="M13.3817 53.5822H15.6121V55.8148H13.3817V53.5822Z" fill="#1E1E1E"/>
    <path d="M13.3817 60.2798H15.6121V62.5123H13.3817V60.2798Z" fill="#1E1E1E"/>
    <path d="M13.3817 66.9773H15.6121V69.2099H13.3817V66.9773Z" fill="#1E1E1E"/>
    <path d="M13.3817 73.6748H15.6121V75.9074H13.3817V73.6748Z" fill="#1E1E1E"/>
    <path d="M13.3817 80.3729H15.6121V82.6054H13.3817V80.3729Z" fill="#1E1E1E"/>
    <path d="M13.3817 87.0704H15.6121V89.303H13.3817V87.0704Z" fill="#1E1E1E"/>
    <path d="M13.3817 93.7674H15.6121V96H13.3817V93.7674Z" fill="#1E1E1E"/>
    <path d="M20.0731 0H22.3034V2.23256H20.0731V0Z" fill="#1E1E1E"/>
    <path d="M20.0731 6.69851H22.3034V8.93107H20.0731V6.69851Z" fill="#1E1E1E"/>
    <path d="M20.0731 13.396H22.3034V15.6286H20.0731V13.396Z" fill="#1E1E1E"/>
    <path d="M20.0731 20.0936H22.3034V22.3261H20.0731V20.0936Z" fill="#1E1E1E"/>
    <path d="M20.0731 26.7911H22.3034V29.0237H20.0731V26.7911Z" fill="#1E1E1E"/>
    <path d="M20.0731 33.4891H22.3034V35.7217H20.0731V33.4891Z" fill="#1E1E1E"/>
    <path d="M20.0731 40.1867H22.3034V42.4192H20.0731V40.1867Z" fill="#1E1E1E"/>
    <path d="M20.0731 46.8837H22.3034V49.1163H20.0731V46.8837Z" fill="#1E1E1E"/>
    <path d="M20.0731 53.5822H22.3034V55.8148H20.0731V53.5822Z" fill="#1E1E1E"/>
    <path d="M20.0731 60.2798H22.3034V62.5123H20.0731V60.2798Z" fill="#1E1E1E"/>
    <path d="M20.0731 66.9773H22.3034V69.2099H20.0731V66.9773Z" fill="#1E1E1E"/>
    <path d="M20.0731 73.6748H22.3034V75.9074H20.0731V73.6748Z" fill="#1E1E1E"/>
    <path d="M20.0731 80.3729H22.3034V82.6054H20.0731V80.3729Z" fill="#1E1E1E"/>
    <path d="M20.0731 87.0704H22.3034V89.303H20.0731V87.0704Z" fill="#1E1E1E"/>
    <path d="M20.0731 93.7674H22.3034V96H20.0731V93.7674Z" fill="#1E1E1E"/>
    <path d="M26.764 0H28.9943V2.23256H26.764V0Z" fill="#1E1E1E"/>
    <path d="M26.764 6.69851H28.9943V8.93107H26.764V6.69851Z" fill="#1E1E1E"/>
    <path d="M26.764 13.396H28.9943V15.6286H26.764V13.396Z" fill="#1E1E1E"/>
    <path d="M26.764 20.0936H28.9943V22.3261H26.764V20.0936Z" fill="#1E1E1E"/>
    <path d="M26.764 26.7911H28.9943V29.0237H26.764V26.7911Z" fill="#1E1E1E"/>
    <path d="M26.764 33.4891H28.9943V35.7217H26.764V33.4891Z" fill="#1E1E1E"/>
    <path d="M26.764 40.1867H28.9943V42.4192H26.764V40.1867Z" fill="#1E1E1E"/>
    <path d="M26.764 46.8837H28.9943V49.1163H26.764V46.8837Z" fill="#1E1E1E"/>
    <path d="M26.764 53.5822H28.9943V55.8148H26.764V53.5822Z" fill="#1E1E1E"/>
    <path d="M26.764 60.2798H28.9943V62.5123H26.764V60.2798Z" fill="#1E1E1E"/>
    <path d="M26.764 66.9773H28.9943V69.2099H26.764V66.9773Z" fill="#1E1E1E"/>
    <path d="M26.764 73.6748H28.9943V75.9074H26.764V73.6748Z" fill="#1E1E1E"/>
    <path d="M26.764 80.3729H28.9943V82.6054H26.764V80.3729Z" fill="#1E1E1E"/>
    <path d="M26.764 87.0704H28.9943V89.303H26.764V87.0704Z" fill="#1E1E1E"/>
    <path d="M26.764 93.7674H28.9943V96H26.764V93.7674Z" fill="#1E1E1E"/>
    <path d="M33.4548 0H35.6852V2.23256H33.4548V0Z" fill="#1E1E1E"/>
    <path d="M33.4548 6.69851H35.6852V8.93107H33.4548V6.69851Z" fill="#1E1E1E"/>
    <path d="M33.4548 13.396H35.6852V15.6286H33.4548V13.396Z" fill="#1E1E1E"/>
    <path d="M33.4548 20.0936H35.6852V22.3261H33.4548V20.0936Z" fill="#1E1E1E"/>
    <path d="M33.4548 26.7911H35.6852V29.0237H33.4548V26.7911Z" fill="#1E1E1E"/>
    <path d="M33.4548 33.4891H35.6852V35.7217H33.4548V33.4891Z" fill="#1E1E1E"/>
    <path d="M33.4548 40.1867H35.6852V42.4192H33.4548V40.1867Z" fill="#1E1E1E"/>
    <path d="M33.4548 46.8837H35.6852V49.1163H33.4548V46.8837Z" fill="#1E1E1E"/>
    <path d="M33.4548 53.5822H35.6852V55.8148H33.4548V53.5822Z" fill="#1E1E1E"/>
    <path d="M33.4548 60.2798H35.6852V62.5123H33.4548V60.2798Z" fill="#1E1E1E"/>
    <path d="M33.4548 66.9773H35.6852V69.2099H33.4548V66.9773Z" fill="#1E1E1E"/>
    <path d="M33.4548 73.6748H35.6852V75.9074H33.4548V73.6748Z" fill="#1E1E1E"/>
    <path d="M33.4548 80.3729H35.6852V82.6054H33.4548V80.3729Z" fill="#1E1E1E"/>
    <path d="M33.4548 87.0704H35.6852V89.303H33.4548V87.0704Z" fill="#1E1E1E"/>
    <path d="M33.4548 93.7674H35.6852V96H33.4548V93.7674Z" fill="#1E1E1E"/>
    <path d="M40.1462 0H42.3765V2.23256H40.1462V0Z" fill="#1E1E1E"/>
    <path d="M40.1462 6.69851H42.3765V8.93107H40.1462V6.69851Z" fill="#1E1E1E"/>
    <path d="M40.1462 13.396H42.3765V15.6286H40.1462V13.396Z" fill="#1E1E1E"/>
    <path d="M40.1462 20.0936H42.3765V22.3261H40.1462V20.0936Z" fill="#1E1E1E"/>
    <path d="M40.1462 26.7911H42.3765V29.0237H40.1462V26.7911Z" fill="#1E1E1E"/>
    <path d="M40.1462 33.4891H42.3765V35.7217H40.1462V33.4891Z" fill="#1E1E1E"/>
    <path d="M40.1462 40.1867H42.3765V42.4192H40.1462V40.1867Z" fill="#1E1E1E"/>
    <path d="M40.1462 46.8837H42.3765V49.1163H40.1462V46.8837Z" fill="#1E1E1E"/>
    <path d="M40.1462 53.5822H42.3765V55.8148H40.1462V53.5822Z" fill="#1E1E1E"/>
    <path d="M40.1462 60.2798H42.3765V62.5123H40.1462V60.2798Z" fill="#1E1E1E"/>
    <path d="M40.1462 66.9773H42.3765V69.2099H40.1462V66.9773Z" fill="#1E1E1E"/>
    <path d="M40.1462 73.6748H42.3765V75.9074H40.1462V73.6748Z" fill="#1E1E1E"/>
    <path d="M40.1462 80.3729H42.3765V82.6054H40.1462V80.3729Z" fill="#1E1E1E"/>
    <path d="M40.1462 87.0704H42.3765V89.303H40.1462V87.0704Z" fill="#1E1E1E"/>
    <path d="M40.1462 93.7674H42.3765V96H40.1462V93.7674Z" fill="#1E1E1E"/>
    <path d="M46.8371 0H49.0674V2.23256H46.8371V0Z" fill="#1E1E1E"/>
    <path d="M46.8371 6.69851H49.0674V8.93107H46.8371V6.69851Z" fill="#1E1E1E"/>
    <path d="M46.8371 13.396H49.0674V15.6286H46.8371V13.396Z" fill="#1E1E1E"/>
    <path d="M46.8371 20.0936H49.0674V22.3261H46.8371V20.0936Z" fill="#1E1E1E"/>
    <path d="M46.8371 26.7911H49.0674V29.0237H46.8371V26.7911Z" fill="#1E1E1E"/>
    <path d="M46.8371 33.4891H49.0674V35.7217H46.8371V33.4891Z" fill="#1E1E1E"/>
    <path d="M46.8371 40.1867H49.0674V42.4192H46.8371V40.1867Z" fill="#1E1E1E"/>
    <path d="M46.8371 46.8837H49.0674V49.1163H46.8371V46.8837Z" fill="#1E1E1E"/>
    <path d="M46.8371 53.5822H49.0674V55.8148H46.8371V53.5822Z" fill="#1E1E1E"/>
    <path d="M46.8371 60.2798H49.0674V62.5123H46.8371V60.2798Z" fill="#1E1E1E"/>
    <path d="M46.8371 66.9773H49.0674V69.2099H46.8371V66.9773Z" fill="#1E1E1E"/>
    <path d="M46.8371 73.6748H49.0674V75.9074H46.8371V73.6748Z" fill="#1E1E1E"/>
    <path d="M46.8371 80.3729H49.0674V82.6054H46.8371V80.3729Z" fill="#1E1E1E"/>
    <path d="M46.8371 87.0704H49.0674V89.303H46.8371V87.0704Z" fill="#1E1E1E"/>
    <path d="M46.8371 93.7674H49.0674V96H46.8371V93.7674Z" fill="#1E1E1E"/>
    <path d="M53.5279 0H55.7583V2.23256H53.5279V0Z" fill="#1E1E1E"/>
    <path d="M53.5279 6.69851H55.7583V8.93107H53.5279V6.69851Z" fill="#1E1E1E"/>
    <path d="M53.5279 13.396H55.7583V15.6286H53.5279V13.396Z" fill="#1E1E1E"/>
    <path d="M53.5279 20.0936H55.7583V22.3261H53.5279V20.0936Z" fill="#1E1E1E"/>
    <path d="M53.5279 26.7911H55.7583V29.0237H53.5279V26.7911Z" fill="#1E1E1E"/>
    <path d="M53.5279 33.4891H55.7583V35.7217H53.5279V33.4891Z" fill="#1E1E1E"/>
    <path d="M53.5279 40.1867H55.7583V42.4192H53.5279V40.1867Z" fill="#1E1E1E"/>
    <path d="M53.5279 46.8837H55.7583V49.1163H53.5279V46.8837Z" fill="#1E1E1E"/>
    <path d="M53.5279 53.5822H55.7583V55.8148H53.5279V53.5822Z" fill="#1E1E1E"/>
    <path d="M53.5279 60.2798H55.7583V62.5123H53.5279V60.2798Z" fill="#1E1E1E"/>
    <path d="M53.5279 66.9773H55.7583V69.2099H53.5279V66.9773Z" fill="#1E1E1E"/>
    <path d="M53.5279 73.6748H55.7583V75.9074H53.5279V73.6748Z" fill="#1E1E1E"/>
    <path d="M53.5279 80.3729H55.7583V82.6054H53.5279V80.3729Z" fill="#1E1E1E"/>
    <path d="M53.5279 87.0704H55.7583V89.303H53.5279V87.0704Z" fill="#1E1E1E"/>
    <path d="M53.5279 93.7674H55.7583V96H53.5279V93.7674Z" fill="#1E1E1E"/>
    <path d="M60.2188 0H62.4491V2.23256H60.2188V0Z" fill="#1E1E1E"/>
    <path d="M60.2188 6.69851H62.4491V8.93107H60.2188V6.69851Z" fill="#1E1E1E"/>
    <path d="M60.2188 13.396H62.4491V15.6286H60.2188V13.396Z" fill="#1E1E1E"/>
    <path d="M60.2188 20.0936H62.4491V22.3261H60.2188V20.0936Z" fill="#1E1E1E"/>
    <path d="M60.2188 26.7911H62.4491V29.0237H60.2188V26.7911Z" fill="#1E1E1E"/>
    <path d="M60.2188 33.4891H62.4491V35.7217H60.2188V33.4891Z" fill="#1E1E1E"/>
    <path d="M60.2188 40.1867H62.4491V42.4192H60.2188V40.1867Z" fill="#1E1E1E"/>
    <path d="M60.2188 46.8837H62.4491V49.1163H60.2188V46.8837Z" fill="#1E1E1E"/>
    <path d="M60.2188 53.5822H62.4491V55.8148H60.2188V53.5822Z" fill="#1E1E1E"/>
    <path d="M60.2188 60.2798H62.4491V62.5123H60.2188V60.2798Z" fill="#1E1E1E"/>
    <path d="M60.2188 66.9773H62.4491V69.2099H60.2188V66.9773Z" fill="#1E1E1E"/>
    <path d="M60.2188 73.6748H62.4491V75.9074H60.2188V73.6748Z" fill="#1E1E1E"/>
    <path d="M60.2188 80.3729H62.4491V82.6054H60.2188V80.3729Z" fill="#1E1E1E"/>
    <path d="M60.2188 87.0704H62.4491V89.303H60.2188V87.0704Z" fill="#1E1E1E"/>
    <path d="M60.2188 93.7674H62.4491V96H60.2188V93.7674Z" fill="#1E1E1E"/>
    <path d="M66.9102 0H69.1405V2.23256H66.9102V0Z" fill="#1E1E1E"/>
    <path d="M66.9102 6.69851H69.1405V8.93107H66.9102V6.69851Z" fill="#1E1E1E"/>
    <path d="M66.9102 13.396H69.1405V15.6286H66.9102V13.396Z" fill="#1E1E1E"/>
    <path d="M66.9102 20.0936H69.1405V22.3261H66.9102V20.0936Z" fill="#1E1E1E"/>
    <path d="M66.9102 26.7911H69.1405V29.0237H66.9102V26.7911Z" fill="#1E1E1E"/>
    <path d="M66.9102 33.4891H69.1405V35.7217H66.9102V33.4891Z" fill="#1E1E1E"/>
    <path d="M66.9102 40.1867H69.1405V42.4192H66.9102V40.1867Z" fill="#1E1E1E"/>
    <path d="M66.9102 46.8837H69.1405V49.1163H66.9102V46.8837Z" fill="#1E1E1E"/>
    <path d="M66.9102 53.5822H69.1405V55.8148H66.9102V53.5822Z" fill="#1E1E1E"/>
    <path d="M66.9102 60.2798H69.1405V62.5123H66.9102V60.2798Z" fill="#1E1E1E"/>
    <path d="M66.9102 66.9773H69.1405V69.2099H66.9102V66.9773Z" fill="#1E1E1E"/>
    <path d="M66.9102 73.6748H69.1405V75.9074H66.9102V73.6748Z" fill="#1E1E1E"/>
    <path d="M66.9102 80.3729H69.1405V82.6054H66.9102V80.3729Z" fill="#1E1E1E"/>
    <path d="M66.9102 87.0704H69.1405V89.303H66.9102V87.0704Z" fill="#1E1E1E"/>
    <path d="M66.9102 93.7674H69.1405V96H66.9102V93.7674Z" fill="#1E1E1E"/>
    <path d="M73.601 0H75.8314V2.23256H73.601V0Z" fill="#1E1E1E"/>
    <path d="M73.601 6.69851H75.8314V8.93107H73.601V6.69851Z" fill="#1E1E1E"/>
    <path d="M73.601 13.396H75.8314V15.6286H73.601V13.396Z" fill="#1E1E1E"/>
    <path d="M73.601 20.0936H75.8314V22.3261H73.601V20.0936Z" fill="#1E1E1E"/>
    <path d="M73.601 26.7911H75.8314V29.0237H73.601V26.7911Z" fill="#1E1E1E"/>
    <path d="M73.601 33.4891H75.8314V35.7217H73.601V33.4891Z" fill="#1E1E1E"/>
    <path d="M73.601 40.1867H75.8314V42.4192H73.601V40.1867Z" fill="#1E1E1E"/>
    <path d="M73.601 46.8837H75.8314V49.1163H73.601V46.8837Z" fill="#1E1E1E"/>
    <path d="M73.601 53.5822H75.8314V55.8148H73.601V53.5822Z" fill="#1E1E1E"/>
    <path d="M73.601 60.2798H75.8314V62.5123H73.601V60.2798Z" fill="#1E1E1E"/>
    <path d="M73.601 66.9773H75.8314V69.2099H73.601V66.9773Z" fill="#1E1E1E"/>
    <path d="M73.601 73.6748H75.8314V75.9074H73.601V73.6748Z" fill="#1E1E1E"/>
    <path d="M73.601 80.3729H75.8314V82.6054H73.601V80.3729Z" fill="#1E1E1E"/>
    <path d="M73.601 87.0704H75.8314V89.303H73.601V87.0704Z" fill="#1E1E1E"/>
    <path d="M73.601 93.7674H75.8314V96H73.601V93.7674Z" fill="#1E1E1E"/>
    <path d="M80.2919 0H82.5222V2.23256H80.2919V0Z" fill="#1E1E1E"/>
    <path d="M80.2919 6.69851H82.5222V8.93107H80.2919V6.69851Z" fill="#1E1E1E"/>
    <path d="M80.2919 13.396H82.5222V15.6286H80.2919V13.396Z" fill="#1E1E1E"/>
    <path d="M80.2919 20.0936H82.5222V22.3261H80.2919V20.0936Z" fill="#1E1E1E"/>
    <path d="M80.2919 26.7911H82.5222V29.0237H80.2919V26.7911Z" fill="#1E1E1E"/>
    <path d="M80.2919 33.4891H82.5222V35.7217H80.2919V33.4891Z" fill="#1E1E1E"/>
    <path d="M80.2919 40.1867H82.5222V42.4192H80.2919V40.1867Z" fill="#1E1E1E"/>
    <path d="M80.2919 46.8837H82.5222V49.1163H80.2919V46.8837Z" fill="#1E1E1E"/>
    <path d="M80.2919 53.5822H82.5222V55.8148H80.2919V53.5822Z" fill="#1E1E1E"/>
    <path d="M80.2919 60.2798H82.5222V62.5123H80.2919V60.2798Z" fill="#1E1E1E"/>
    <path d="M80.2919 66.9773H82.5222V69.2099H80.2919V66.9773Z" fill="#1E1E1E"/>
    <path d="M80.2919 73.6748H82.5222V75.9074H80.2919V73.6748Z" fill="#1E1E1E"/>
    <path d="M80.2919 80.3729H82.5222V82.6054H80.2919V80.3729Z" fill="#1E1E1E"/>
    <path d="M80.2919 87.0704H82.5222V89.303H80.2919V87.0704Z" fill="#1E1E1E"/>
    <path d="M80.2919 93.7674H82.5222V96H80.2919V93.7674Z" fill="#1E1E1E"/>
    <path d="M86.9828 0H89.2131V2.23256H86.9828V0Z" fill="#1E1E1E"/>
    <path d="M86.9828 6.69851H89.2131V8.93107H86.9828V6.69851Z" fill="#1E1E1E"/>
    <path d="M86.9828 13.396H89.2131V15.6286H86.9828V13.396Z" fill="#1E1E1E"/>
    <path d="M86.9828 20.0936H89.2131V22.3261H86.9828V20.0936Z" fill="#1E1E1E"/>
    <path d="M86.9828 26.7911H89.2131V29.0237H86.9828V26.7911Z" fill="#1E1E1E"/>
    <path d="M86.9828 33.4891H89.2131V35.7217H86.9828V33.4891Z" fill="#1E1E1E"/>
    <path d="M86.9828 40.1867H89.2131V42.4192H86.9828V40.1867Z" fill="#1E1E1E"/>
    <path d="M86.9828 46.8837H89.2131V49.1163H86.9828V46.8837Z" fill="#1E1E1E"/>
    <path d="M86.9828 53.5822H89.2131V55.8148H86.9828V53.5822Z" fill="#1E1E1E"/>
    <path d="M86.9828 60.2798H89.2131V62.5123H86.9828V60.2798Z" fill="#1E1E1E"/>
    <path d="M86.9828 66.9773H89.2131V69.2099H86.9828V66.9773Z" fill="#1E1E1E"/>
    <path d="M86.9828 73.6748H89.2131V75.9074H86.9828V73.6748Z" fill="#1E1E1E"/>
    <path d="M86.9828 80.3729H89.2131V82.6054H86.9828V80.3729Z" fill="#1E1E1E"/>
    <path d="M86.9828 87.0704H89.2131V89.303H86.9828V87.0704Z" fill="#1E1E1E"/>
    <path d="M86.9828 93.7674H89.2131V96H86.9828V93.7674Z" fill="#1E1E1E"/>
    <path d="M93.6741 0H95.9045V2.23256H93.6741V0Z" fill="#1E1E1E"/>
    <path d="M93.6741 6.69851H95.9045V8.93107H93.6741V6.69851Z" fill="#1E1E1E"/>
    <path d="M93.6741 13.396H95.9045V15.6286H93.6741V13.396Z" fill="#1E1E1E"/>
    <path d="M93.6741 20.0936H95.9045V22.3261H93.6741V20.0936Z" fill="#1E1E1E"/>
    <path d="M93.6741 26.7911H95.9045V29.0237H93.6741V26.7911Z" fill="#1E1E1E"/>
    <path d="M93.6741 33.4891H95.9045V35.7217H93.6741V33.4891Z" fill="#1E1E1E"/>
    <path d="M93.6741 40.1867H95.9045V42.4192H93.6741V40.1867Z" fill="#1E1E1E"/>
    <path d="M93.6741 46.8837H95.9045V49.1163H93.6741V46.8837Z" fill="#1E1E1E"/>
    <path d="M93.6741 53.5822H95.9045V55.8148H93.6741V53.5822Z" fill="#1E1E1E"/>
    <path d="M93.6741 60.2798H95.9045V62.5123H93.6741V60.2798Z" fill="#1E1E1E"/>
    <path d="M93.6741 66.9773H95.9045V69.2099H93.6741V66.9773Z" fill="#1E1E1E"/>
    <path d="M93.6741 73.6748H95.9045V75.9074H93.6741V73.6748Z" fill="#1E1E1E"/>
    <path d="M93.6741 80.3729H95.9045V82.6054H93.6741V80.3729Z" fill="#1E1E1E"/>
    <path d="M93.6741 87.0704H95.9045V89.303H93.6741V87.0704Z" fill="#1E1E1E"/>
    <path d="M93.6741 93.7674H95.9045V96H93.6741V93.7674Z" fill="#1E1E1E"/>
    <path d="M100.365 0H102.595V2.23256H100.365V0Z" fill="#1E1E1E"/>
    <path d="M100.365 6.69851H102.595V8.93107H100.365V6.69851Z" fill="#1E1E1E"/>
    <path d="M100.365 13.396H102.595V15.6286H100.365V13.396Z" fill="#1E1E1E"/>
    <path d="M100.365 20.0936H102.595V22.3261H100.365V20.0936Z" fill="#1E1E1E"/>
    <path d="M100.365 26.7911H102.595V29.0237H100.365V26.7911Z" fill="#1E1E1E"/>
    <path d="M100.365 33.4891H102.595V35.7217H100.365V33.4891Z" fill="#1E1E1E"/>
    <path d="M100.365 40.1867H102.595V42.4192H100.365V40.1867Z" fill="#1E1E1E"/>
    <path d="M100.365 46.8837H102.595V49.1163H100.365V46.8837Z" fill="#1E1E1E"/>
    <path d="M100.365 53.5822H102.595V55.8148H100.365V53.5822Z" fill="#1E1E1E"/>
    <path d="M100.365 60.2798H102.595V62.5123H100.365V60.2798Z" fill="#1E1E1E"/>
    <path d="M100.365 66.9773H102.595V69.2099H100.365V66.9773Z" fill="#1E1E1E"/>
    <path d="M100.365 73.6748H102.595V75.9074H100.365V73.6748Z" fill="#1E1E1E"/>
    <path d="M100.365 80.3729H102.595V82.6054H100.365V80.3729Z" fill="#1E1E1E"/>
    <path d="M100.365 87.0704H102.595V89.303H100.365V87.0704Z" fill="#1E1E1E"/>
    <path d="M100.365 93.7674H102.595V96H100.365V93.7674Z" fill="#1E1E1E"/>
    <path d="M107.056 0H109.286V2.23256H107.056V0Z" fill="#1E1E1E"/>
    <path d="M107.056 6.69851H109.286V8.93107H107.056V6.69851Z" fill="#1E1E1E"/>
    <path d="M107.056 13.396H109.286V15.6286H107.056V13.396Z" fill="#1E1E1E"/>
    <path d="M107.056 20.0936H109.286V22.3261H107.056V20.0936Z" fill="#1E1E1E"/>
    <path d="M107.056 26.7911H109.286V29.0237H107.056V26.7911Z" fill="#1E1E1E"/>
    <path d="M107.056 33.4891H109.286V35.7217H107.056V33.4891Z" fill="#1E1E1E"/>
    <path d="M107.056 40.1867H109.286V42.4192H107.056V40.1867Z" fill="#1E1E1E"/>
    <path d="M107.056 46.8837H109.286V49.1163H107.056V46.8837Z" fill="#1E1E1E"/>
    <path d="M107.056 53.5822H109.286V55.8148H107.056V53.5822Z" fill="#1E1E1E"/>
    <path d="M107.056 60.2798H109.286V62.5123H107.056V60.2798Z" fill="#1E1E1E"/>
    <path d="M107.056 66.9773H109.286V69.2099H107.056V66.9773Z" fill="#1E1E1E"/>
    <path d="M107.056 73.6748H109.286V75.9074H107.056V73.6748Z" fill="#1E1E1E"/>
    <path d="M107.056 80.3729H109.286V82.6054H107.056V80.3729Z" fill="#1E1E1E"/>
    <path d="M107.056 87.0704H109.286V89.303H107.056V87.0704Z" fill="#1E1E1E"/>
    <path d="M107.056 93.7674H109.286V96H107.056V93.7674Z" fill="#1E1E1E"/>
    <path d="M113.747 0H115.978V2.23256H113.747V0Z" fill="#1E1E1E"/>
    <path d="M113.747 6.69851H115.978V8.93107H113.747V6.69851Z" fill="#1E1E1E"/>
    <path d="M113.747 13.396H115.978V15.6286H113.747V13.396Z" fill="#1E1E1E"/>
    <path d="M113.747 20.0936H115.978V22.3261H113.747V20.0936Z" fill="#1E1E1E"/>
    <path d="M113.747 26.7911H115.978V29.0237H113.747V26.7911Z" fill="#1E1E1E"/>
    <path d="M113.747 33.4891H115.978V35.7217H113.747V33.4891Z" fill="#1E1E1E"/>
    <path d="M113.747 40.1867H115.978V42.4192H113.747V40.1867Z" fill="#1E1E1E"/>
    <path d="M113.747 46.8837H115.978V49.1163H113.747V46.8837Z" fill="#1E1E1E"/>
    <path d="M113.747 53.5822H115.978V55.8148H113.747V53.5822Z" fill="#1E1E1E"/>
    <path d="M113.747 60.2798H115.978V62.5123H113.747V60.2798Z" fill="#1E1E1E"/>
    <path d="M113.747 66.9773H115.978V69.2099H113.747V66.9773Z" fill="#1E1E1E"/>
    <path d="M113.747 73.6748H115.978V75.9074H113.747V73.6748Z" fill="#1E1E1E"/>
    <path d="M113.747 80.3729H115.978V82.6054H113.747V80.3729Z" fill="#1E1E1E"/>
    <path d="M113.747 87.0704H115.978V89.303H113.747V87.0704Z" fill="#1E1E1E"/>
    <path d="M113.747 93.7674H115.978V96H113.747V93.7674Z" fill="#1E1E1E"/>
    <path d="M120.438 0H122.668V2.23256H120.438V0Z" fill="#1E1E1E"/>
    <path d="M120.438 6.69851H122.668V8.93107H120.438V6.69851Z" fill="#1E1E1E"/>
    <path d="M120.438 13.396H122.668V15.6286H120.438V13.396Z" fill="#1E1E1E"/>
    <path d="M120.438 20.0936H122.668V22.3261H120.438V20.0936Z" fill="#1E1E1E"/>
    <path d="M120.438 26.7911H122.668V29.0237H120.438V26.7911Z" fill="#1E1E1E"/>
    <path d="M120.438 33.4891H122.668V35.7217H120.438V33.4891Z" fill="#1E1E1E"/>
    <path d="M120.438 40.1867H122.668V42.4192H120.438V40.1867Z" fill="#1E1E1E"/>
    <path d="M120.438 46.8837H122.668V49.1163H120.438V46.8837Z" fill="#1E1E1E"/>
    <path d="M120.438 53.5822H122.668V55.8148H120.438V53.5822Z" fill="#1E1E1E"/>
    <path d="M120.438 60.2798H122.668V62.5123H120.438V60.2798Z" fill="#1E1E1E"/>
    <path d="M120.438 66.9773H122.668V69.2099H120.438V66.9773Z" fill="#1E1E1E"/>
    <path d="M120.438 73.6748H122.668V75.9074H120.438V73.6748Z" fill="#1E1E1E"/>
    <path d="M120.438 80.3729H122.668V82.6054H120.438V80.3729Z" fill="#1E1E1E"/>
    <path d="M120.438 87.0704H122.668V89.303H120.438V87.0704Z" fill="#1E1E1E"/>
    <path d="M120.438 93.7674H122.668V96H120.438V93.7674Z" fill="#1E1E1E"/>
    <path d="M127.129 0H129.359V2.23256H127.129V0Z" fill="#1E1E1E"/>
    <path d="M127.129 6.69851H129.359V8.93107H127.129V6.69851Z" fill="#1E1E1E"/>
    <path d="M127.129 13.396H129.359V15.6286H127.129V13.396Z" fill="#1E1E1E"/>
    <path d="M127.129 20.0936H129.359V22.3261H127.129V20.0936Z" fill="#1E1E1E"/>
    <path d="M127.129 26.7911H129.359V29.0237H127.129V26.7911Z" fill="#1E1E1E"/>
    <path d="M127.129 33.4891H129.359V35.7217H127.129V33.4891Z" fill="#1E1E1E"/>
    <path d="M127.129 40.1867H129.359V42.4192H127.129V40.1867Z" fill="#1E1E1E"/>
    <path d="M127.129 46.8837H129.359V49.1163H127.129V46.8837Z" fill="#1E1E1E"/>
    <path d="M127.129 53.5822H129.359V55.8148H127.129V53.5822Z" fill="#1E1E1E"/>
    <path d="M127.129 60.2798H129.359V62.5123H127.129V60.2798Z" fill="#1E1E1E"/>
    <path d="M127.129 66.9773H129.359V69.2099H127.129V66.9773Z" fill="#1E1E1E"/>
    <path d="M127.129 73.6748H129.359V75.9074H127.129V73.6748Z" fill="#1E1E1E"/>
    <path d="M127.129 80.3729H129.359V82.6054H127.129V80.3729Z" fill="#1E1E1E"/>
    <path d="M127.129 87.0704H129.359V89.303H127.129V87.0704Z" fill="#1E1E1E"/>
    <path d="M127.129 93.7674H129.359V96H127.129V93.7674Z" fill="#1E1E1E"/>
    <path d="M133.82 0H136.05V2.23256H133.82V0Z" fill="#1E1E1E"/>
    <path d="M133.82 6.69851H136.05V8.93107H133.82V6.69851Z" fill="#1E1E1E"/>
    <path d="M133.82 13.396H136.05V15.6286H133.82V13.396Z" fill="#1E1E1E"/>
    <path d="M133.82 20.0936H136.05V22.3261H133.82V20.0936Z" fill="#1E1E1E"/>
    <path d="M133.82 26.7911H136.05V29.0237H133.82V26.7911Z" fill="#1E1E1E"/>
    <path d="M133.82 33.4891H136.05V35.7217H133.82V33.4891Z" fill="#1E1E1E"/>
    <path d="M133.82 40.1867H136.05V42.4192H133.82V40.1867Z" fill="#1E1E1E"/>
    <path d="M133.82 46.8837H136.05V49.1163H133.82V46.8837Z" fill="#1E1E1E"/>
    <path d="M133.82 53.5822H136.05V55.8148H133.82V53.5822Z" fill="#1E1E1E"/>
    <path d="M133.82 60.2798H136.05V62.5123H133.82V60.2798Z" fill="#1E1E1E"/>
    <path d="M133.82 66.9773H136.05V69.2099H133.82V66.9773Z" fill="#1E1E1E"/>
    <path d="M133.82 73.6748H136.05V75.9074H133.82V73.6748Z" fill="#1E1E1E"/>
    <path d="M133.82 80.3729H136.05V82.6054H133.82V80.3729Z" fill="#1E1E1E"/>
    <path d="M133.82 87.0704H136.05V89.303H133.82V87.0704Z" fill="#1E1E1E"/>
    <path d="M133.82 93.7674H136.05V96H133.82V93.7674Z" fill="#1E1E1E"/>
    <path d="M140.511 0H142.742V2.23256H140.511V0Z" fill="#1E1E1E"/>
    <path d="M140.511 6.69851H142.742V8.93107H140.511V6.69851Z" fill="#1E1E1E"/>
    <path d="M140.511 13.396H142.742V15.6286H140.511V13.396Z" fill="#1E1E1E"/>
    <path d="M140.511 20.0936H142.742V22.3261H140.511V20.0936Z" fill="#1E1E1E"/>
    <path d="M140.511 26.7911H142.742V29.0237H140.511V26.7911Z" fill="#1E1E1E"/>
    <path d="M140.511 33.4891H142.742V35.7217H140.511V33.4891Z" fill="#1E1E1E"/>
    <path d="M140.511 40.1867H142.742V42.4192H140.511V40.1867Z" fill="#1E1E1E"/>
    <path d="M140.511 46.8837H142.742V49.1163H140.511V46.8837Z" fill="#1E1E1E"/>
    <path d="M140.511 53.5822H142.742V55.8148H140.511V53.5822Z" fill="#1E1E1E"/>
    <path d="M140.511 60.2798H142.742V62.5123H140.511V60.2798Z" fill="#1E1E1E"/>
    <path d="M140.511 66.9773H142.742V69.2099H140.511V66.9773Z" fill="#1E1E1E"/>
    <path d="M140.511 73.6748H142.742V75.9074H140.511V73.6748Z" fill="#1E1E1E"/>
    <path d="M140.511 80.3729H142.742V82.6054H140.511V80.3729Z" fill="#1E1E1E"/>
    <path d="M140.511 87.0704H142.742V89.303H140.511V87.0704Z" fill="#1E1E1E"/>
    <path d="M140.511 93.7674H142.742V96H140.511V93.7674Z" fill="#1E1E1E"/>
    <path d="M147.202 0H149.432V2.23256H147.202V0Z" fill="#1E1E1E"/>
    <path d="M147.202 6.69851H149.432V8.93107H147.202V6.69851Z" fill="#1E1E1E"/>
    <path d="M147.202 13.396H149.432V15.6286H147.202V13.396Z" fill="#1E1E1E"/>
    <path d="M147.202 20.0936H149.432V22.3261H147.202V20.0936Z" fill="#1E1E1E"/>
    <path d="M147.202 26.7911H149.432V29.0237H147.202V26.7911Z" fill="#1E1E1E"/>
    <path d="M147.202 33.4891H149.432V35.7217H147.202V33.4891Z" fill="#1E1E1E"/>
    <path d="M147.202 40.1867H149.432V42.4192H147.202V40.1867Z" fill="#1E1E1E"/>
    <path d="M147.202 46.8837H149.432V49.1163H147.202V46.8837Z" fill="#1E1E1E"/>
    <path d="M147.202 53.5822H149.432V55.8148H147.202V53.5822Z" fill="#1E1E1E"/>
    <path d="M147.202 60.2798H149.432V62.5123H147.202V60.2798Z" fill="#1E1E1E"/>
    <path d="M147.202 66.9773H149.432V69.2099H147.202V66.9773Z" fill="#1E1E1E"/>
    <path d="M147.202 73.6748H149.432V75.9074H147.202V73.6748Z" fill="#1E1E1E"/>
    <path d="M147.202 80.3729H149.432V82.6054H147.202V80.3729Z" fill="#1E1E1E"/>
    <path d="M147.202 87.0704H149.432V89.303H147.202V87.0704Z" fill="#1E1E1E"/>
    <path d="M147.202 93.7674H149.432V96H147.202V93.7674Z" fill="#1E1E1E"/>
    <path d="M153.893 0H156.123V2.23256H153.893V0Z" fill="#1E1E1E"/>
    <path d="M153.893 6.69851H156.123V8.93107H153.893V6.69851Z" fill="#1E1E1E"/>
    <path d="M153.893 13.396H156.123V15.6286H153.893V13.396Z" fill="#1E1E1E"/>
    <path d="M153.893 20.0936H156.123V22.3261H153.893V20.0936Z" fill="#1E1E1E"/>
    <path d="M153.893 26.7911H156.123V29.0237H153.893V26.7911Z" fill="#1E1E1E"/>
    <path d="M153.893 33.4891H156.123V35.7217H153.893V33.4891Z" fill="#1E1E1E"/>
    <path d="M153.893 40.1867H156.123V42.4192H153.893V40.1867Z" fill="#1E1E1E"/>
    <path d="M153.893 46.8837H156.123V49.1163H153.893V46.8837Z" fill="#1E1E1E"/>
    <path d="M153.893 53.5822H156.123V55.8148H153.893V53.5822Z" fill="#1E1E1E"/>
    <path d="M153.893 60.2798H156.123V62.5123H153.893V60.2798Z" fill="#1E1E1E"/>
    <path d="M153.893 66.9773H156.123V69.2099H153.893V66.9773Z" fill="#1E1E1E"/>
    <path d="M153.893 73.6748H156.123V75.9074H153.893V73.6748Z" fill="#1E1E1E"/>
    <path d="M153.893 80.3729H156.123V82.6054H153.893V80.3729Z" fill="#1E1E1E"/>
    <path d="M153.893 87.0704H156.123V89.303H153.893V87.0704Z" fill="#1E1E1E"/>
    <path d="M153.893 93.7674H156.123V96H153.893V93.7674Z" fill="#1E1E1E"/>
    <path d="M160.584 0H162.815V2.23256H160.584V0Z" fill="#1E1E1E"/>
    <path d="M160.584 6.69851H162.815V8.93107H160.584V6.69851Z" fill="#1E1E1E"/>
    <path d="M160.584 13.396H162.815V15.6286H160.584V13.396Z" fill="#1E1E1E"/>
    <path d="M160.584 20.0936H162.815V22.3261H160.584V20.0936Z" fill="#1E1E1E"/>
    <path d="M160.584 26.7911H162.815V29.0237H160.584V26.7911Z" fill="#1E1E1E"/>
    <path d="M160.584 33.4891H162.815V35.7217H160.584V33.4891Z" fill="#1E1E1E"/>
    <path d="M160.584 40.1867H162.815V42.4192H160.584V40.1867Z" fill="#1E1E1E"/>
    <path d="M160.584 46.8837H162.815V49.1163H160.584V46.8837Z" fill="#1E1E1E"/>
    <path d="M160.584 53.5822H162.815V55.8148H160.584V53.5822Z" fill="#1E1E1E"/>
    <path d="M160.584 60.2798H162.815V62.5123H160.584V60.2798Z" fill="#1E1E1E"/>
    <path d="M160.584 66.9773H162.815V69.2099H160.584V66.9773Z" fill="#1E1E1E"/>
    <path d="M160.584 73.6748H162.815V75.9074H160.584V73.6748Z" fill="#1E1E1E"/>
    <path d="M160.584 80.3729H162.815V82.6054H160.584V80.3729Z" fill="#1E1E1E"/>
    <path d="M160.584 87.0704H162.815V89.303H160.584V87.0704Z" fill="#1E1E1E"/>
    <path d="M160.584 93.7674H162.815V96H160.584V93.7674Z" fill="#1E1E1E"/>
    <path d="M167.275 0H169.506V2.23256H167.275V0Z" fill="#1E1E1E"/>
    <path d="M167.275 6.69851H169.506V8.93107H167.275V6.69851Z" fill="#1E1E1E"/>
    <path d="M167.275 13.396H169.506V15.6286H167.275V13.396Z" fill="#1E1E1E"/>
    <path d="M167.275 20.0936H169.506V22.3261H167.275V20.0936Z" fill="#1E1E1E"/>
    <path d="M167.275 26.7911H169.506V29.0237H167.275V26.7911Z" fill="#1E1E1E"/>
    <path d="M167.275 33.4891H169.506V35.7217H167.275V33.4891Z" fill="#1E1E1E"/>
    <path d="M167.275 40.1867H169.506V42.4192H167.275V40.1867Z" fill="#1E1E1E"/>
    <path d="M167.275 46.8837H169.506V49.1163H167.275V46.8837Z" fill="#1E1E1E"/>
    <path d="M167.275 53.5822H169.506V55.8148H167.275V53.5822Z" fill="#1E1E1E"/>
    <path d="M167.275 60.2798H169.506V62.5123H167.275V60.2798Z" fill="#1E1E1E"/>
    <path d="M167.275 66.9773H169.506V69.2099H167.275V66.9773Z" fill="#1E1E1E"/>
    <path d="M167.275 73.6748H169.506V75.9074H167.275V73.6748Z" fill="#1E1E1E"/>
    <path d="M167.275 80.3729H169.506V82.6054H167.275V80.3729Z" fill="#1E1E1E"/>
    <path d="M167.275 87.0704H169.506V89.303H167.275V87.0704Z" fill="#1E1E1E"/>
    <path d="M167.275 93.7674H169.506V96H167.275V93.7674Z" fill="#1E1E1E"/>
    <path d="M173.966 0H176.196V2.23256H173.966V0Z" fill="#1E1E1E"/>
    <path d="M173.966 6.69851H176.196V8.93107H173.966V6.69851Z" fill="#1E1E1E"/>
    <path d="M173.966 13.396H176.196V15.6286H173.966V13.396Z" fill="#1E1E1E"/>
    <path d="M173.966 20.0936H176.196V22.3261H173.966V20.0936Z" fill="#1E1E1E"/>
    <path d="M173.966 26.7911H176.196V29.0237H173.966V26.7911Z" fill="#1E1E1E"/>
    <path d="M173.966 33.4891H176.196V35.7217H173.966V33.4891Z" fill="#1E1E1E"/>
    <path d="M173.966 40.1867H176.196V42.4192H173.966V40.1867Z" fill="#1E1E1E"/>
    <path d="M173.966 46.8837H176.196V49.1163H173.966V46.8837Z" fill="#1E1E1E"/>
    <path d="M173.966 53.5822H176.196V55.8148H173.966V53.5822Z" fill="#1E1E1E"/>
    <path d="M173.966 60.2798H176.196V62.5123H173.966V60.2798Z" fill="#1E1E1E"/>
    <path d="M173.966 66.9773H176.196V69.2099H173.966V66.9773Z" fill="#1E1E1E"/>
    <path d="M173.966 73.6748H176.196V75.9074H173.966V73.6748Z" fill="#1E1E1E"/>
    <path d="M173.966 80.3729H176.196V82.6054H173.966V80.3729Z" fill="#1E1E1E"/>
    <path d="M173.966 87.0704H176.196V89.303H173.966V87.0704Z" fill="#1E1E1E"/>
    <path d="M173.966 93.7674H176.196V96H173.966V93.7674Z" fill="#1E1E1E"/>
    <path d="M180.657 0H182.887V2.23256H180.657V0Z" fill="#1E1E1E"/>
    <path d="M180.657 6.69851H182.887V8.93107H180.657V6.69851Z" fill="#1E1E1E"/>
    <path d="M180.657 13.396H182.887V15.6286H180.657V13.396Z" fill="#1E1E1E"/>
    <path d="M180.657 20.0936H182.887V22.3261H180.657V20.0936Z" fill="#1E1E1E"/>
    <path d="M180.657 26.7911H182.887V29.0237H180.657V26.7911Z" fill="#1E1E1E"/>
    <path d="M180.657 33.4891H182.887V35.7217H180.657V33.4891Z" fill="#1E1E1E"/>
    <path d="M180.657 40.1867H182.887V42.4192H180.657V40.1867Z" fill="#1E1E1E"/>
    <path d="M180.657 46.8837H182.887V49.1163H180.657V46.8837Z" fill="#1E1E1E"/>
    <path d="M180.657 53.5822H182.887V55.8148H180.657V53.5822Z" fill="#1E1E1E"/>
    <path d="M180.657 60.2798H182.887V62.5123H180.657V60.2798Z" fill="#1E1E1E"/>
    <path d="M180.657 66.9773H182.887V69.2099H180.657V66.9773Z" fill="#1E1E1E"/>
    <path d="M180.657 73.6748H182.887V75.9074H180.657V73.6748Z" fill="#1E1E1E"/>
    <path d="M180.657 80.3729H182.887V82.6054H180.657V80.3729Z" fill="#1E1E1E"/>
    <path d="M180.657 87.0704H182.887V89.303H180.657V87.0704Z" fill="#1E1E1E"/>
    <path d="M180.657 93.7674H182.887V96H180.657V93.7674Z" fill="#1E1E1E"/>
    <path d="M187.348 0H189.579V2.23256H187.348V0Z" fill="#1E1E1E"/>
    <path d="M187.348 6.69851H189.579V8.93107H187.348V6.69851Z" fill="#1E1E1E"/>
    <path d="M187.348 13.396H189.579V15.6286H187.348V13.396Z" fill="#1E1E1E"/>
    <path d="M187.348 20.0936H189.579V22.3261H187.348V20.0936Z" fill="#1E1E1E"/>
    <path d="M187.348 26.7911H189.579V29.0237H187.348V26.7911Z" fill="#1E1E1E"/>
    <path d="M187.348 33.4891H189.579V35.7217H187.348V33.4891Z" fill="#1E1E1E"/>
    <path d="M187.348 40.1867H189.579V42.4192H187.348V40.1867Z" fill="#1E1E1E"/>
    <path d="M187.348 46.8837H189.579V49.1163H187.348V46.8837Z" fill="#1E1E1E"/>
    <path d="M187.348 53.5822H189.579V55.8148H187.348V53.5822Z" fill="#1E1E1E"/>
    <path d="M187.348 60.2798H189.579V62.5123H187.348V60.2798Z" fill="#1E1E1E"/>
    <path d="M187.348 66.9773H189.579V69.2099H187.348V66.9773Z" fill="#1E1E1E"/>
    <path d="M187.348 73.6748H189.579V75.9074H187.348V73.6748Z" fill="#1E1E1E"/>
    <path d="M187.348 80.3729H189.579V82.6054H187.348V80.3729Z" fill="#1E1E1E"/>
    <path d="M187.348 87.0704H189.579V89.303H187.348V87.0704Z" fill="#1E1E1E"/>
    <path d="M187.348 93.7674H189.579V96H187.348V93.7674Z" fill="#1E1E1E"/>
    <path d="M194.039 0H196.269V2.23256H194.039V0Z" fill="#1E1E1E"/>
    <path d="M194.039 6.69851H196.269V8.93107H194.039V6.69851Z" fill="#1E1E1E"/>
    <path d="M194.039 13.396H196.269V15.6286H194.039V13.396Z" fill="#1E1E1E"/>
    <path d="M194.039 20.0936H196.269V22.3261H194.039V20.0936Z" fill="#1E1E1E"/>
    <path d="M194.039 26.7911H196.269V29.0237H194.039V26.7911Z" fill="#1E1E1E"/>
    <path d="M194.039 33.4891H196.269V35.7217H194.039V33.4891Z" fill="#1E1E1E"/>
    <path d="M194.039 40.1867H196.269V42.4192H194.039V40.1867Z" fill="#1E1E1E"/>
    <path d="M194.039 46.8837H196.269V49.1163H194.039V46.8837Z" fill="#1E1E1E"/>
    <path d="M194.039 53.5822H196.269V55.8148H194.039V53.5822Z" fill="#1E1E1E"/>
    <path d="M194.039 60.2798H196.269V62.5123H194.039V60.2798Z" fill="#1E1E1E"/>
    <path d="M194.039 66.9773H196.269V69.2099H194.039V66.9773Z" fill="#1E1E1E"/>
    <path d="M194.039 73.6748H196.269V75.9074H194.039V73.6748Z" fill="#1E1E1E"/>
    <path d="M194.039 80.3729H196.269V82.6054H194.039V80.3729Z" fill="#1E1E1E"/>
    <path d="M194.039 87.0704H196.269V89.303H194.039V87.0704Z" fill="#1E1E1E"/>
    <path d="M194.039 93.7674H196.269V96H194.039V93.7674Z" fill="#1E1E1E"/>
    <path d="M200.73 0H202.96V2.23256H200.73V0Z" fill="#1E1E1E"/>
    <path d="M200.73 6.69851H202.96V8.93107H200.73V6.69851Z" fill="#1E1E1E"/>
    <path d="M200.73 13.396H202.96V15.6286H200.73V13.396Z" fill="#1E1E1E"/>
    <path d="M200.73 20.0936H202.96V22.3261H200.73V20.0936Z" fill="#1E1E1E"/>
    <path d="M200.73 26.7911H202.96V29.0237H200.73V26.7911Z" fill="#1E1E1E"/>
    <path d="M200.73 33.4891H202.96V35.7217H200.73V33.4891Z" fill="#1E1E1E"/>
    <path d="M200.73 40.1867H202.96V42.4192H200.73V40.1867Z" fill="#1E1E1E"/>
    <path d="M200.73 46.8837H202.96V49.1163H200.73V46.8837Z" fill="#1E1E1E"/>
    <path d="M200.73 53.5822H202.96V55.8148H200.73V53.5822Z" fill="#1E1E1E"/>
    <path d="M200.73 60.2798H202.96V62.5123H200.73V60.2798Z" fill="#1E1E1E"/>
    <path d="M200.73 66.9773H202.96V69.2099H200.73V66.9773Z" fill="#1E1E1E"/>
    <path d="M200.73 73.6748H202.96V75.9074H200.73V73.6748Z" fill="#1E1E1E"/>
    <path d="M200.73 80.3729H202.96V82.6054H200.73V80.3729Z" fill="#1E1E1E"/>
    <path d="M200.73 87.0704H202.96V89.303H200.73V87.0704Z" fill="#1E1E1E"/>
    <path d="M200.73 93.7674H202.96V96H200.73V93.7674Z" fill="#1E1E1E"/>
    <path d="M207.421 0H209.652V2.23256H207.421V0Z" fill="#1E1E1E"/>
    <path d="M207.421 6.69851H209.652V8.93107H207.421V6.69851Z" fill="#1E1E1E"/>
    <path d="M207.421 13.396H209.652V15.6286H207.421V13.396Z" fill="#1E1E1E"/>
    <path d="M207.421 20.0936H209.652V22.3261H207.421V20.0936Z" fill="#1E1E1E"/>
    <path d="M207.421 26.7911H209.652V29.0237H207.421V26.7911Z" fill="#1E1E1E"/>
    <path d="M207.421 33.4891H209.652V35.7217H207.421V33.4891Z" fill="#1E1E1E"/>
    <path d="M207.421 40.1867H209.652V42.4192H207.421V40.1867Z" fill="#1E1E1E"/>
    <path d="M207.421 46.8837H209.652V49.1163H207.421V46.8837Z" fill="#1E1E1E"/>
    <path d="M207.421 53.5822H209.652V55.8148H207.421V53.5822Z" fill="#1E1E1E"/>
    <path d="M207.421 60.2798H209.652V62.5123H207.421V60.2798Z" fill="#1E1E1E"/>
    <path d="M207.421 66.9773H209.652V69.2099H207.421V66.9773Z" fill="#1E1E1E"/>
    <path d="M207.421 73.6748H209.652V75.9074H207.421V73.6748Z" fill="#1E1E1E"/>
    <path d="M207.421 80.3729H209.652V82.6054H207.421V80.3729Z" fill="#1E1E1E"/>
    <path d="M207.421 87.0704H209.652V89.303H207.421V87.0704Z" fill="#1E1E1E"/>
    <path d="M207.421 93.7674H209.652V96H207.421V93.7674Z" fill="#1E1E1E"/>
    <path d="M214.112 0H216.343V2.23256H214.112V0Z" fill="#1E1E1E"/>
    <path d="M214.112 6.69851H216.343V8.93107H214.112V6.69851Z" fill="#1E1E1E"/>
    <path d="M214.112 13.396H216.343V15.6286H214.112V13.396Z" fill="#1E1E1E"/>
    <path d="M214.112 20.0936H216.343V22.3261H214.112V20.0936Z" fill="#1E1E1E"/>
    <path d="M214.112 26.7911H216.343V29.0237H214.112V26.7911Z" fill="#1E1E1E"/>
    <path d="M214.112 33.4891H216.343V35.7217H214.112V33.4891Z" fill="#1E1E1E"/>
    <path d="M214.112 40.1867H216.343V42.4192H214.112V40.1867Z" fill="#1E1E1E"/>
    <path d="M214.112 46.8837H216.343V49.1163H214.112V46.8837Z" fill="#1E1E1E"/>
    <path d="M214.112 53.5822H216.343V55.8148H214.112V53.5822Z" fill="#1E1E1E"/>
    <path d="M214.112 60.2798H216.343V62.5123H214.112V60.2798Z" fill="#1E1E1E"/>
    <path d="M214.112 66.9773H216.343V69.2099H214.112V66.9773Z" fill="#1E1E1E"/>
    <path d="M214.112 73.6748H216.343V75.9074H214.112V73.6748Z" fill="#1E1E1E"/>
    <path d="M214.112 80.3729H216.343V82.6054H214.112V80.3729Z" fill="#1E1E1E"/>
    <path d="M214.112 87.0704H216.343V89.303H214.112V87.0704Z" fill="#1E1E1E"/>
    <path d="M214.112 93.7674H216.343V96H214.112V93.7674Z" fill="#1E1E1E"/>
    <path d="M220.803 0H223.033V2.23256H220.803V0Z" fill="#1E1E1E"/>
    <path d="M220.803 6.69851H223.033V8.93107H220.803V6.69851Z" fill="#1E1E1E"/>
    <path d="M220.803 13.396H223.033V15.6286H220.803V13.396Z" fill="#1E1E1E"/>
    <path d="M220.803 20.0936H223.033V22.3261H220.803V20.0936Z" fill="#1E1E1E"/>
    <path d="M220.803 26.7911H223.033V29.0237H220.803V26.7911Z" fill="#1E1E1E"/>
    <path d="M220.803 33.4891H223.033V35.7217H220.803V33.4891Z" fill="#1E1E1E"/>
    <path d="M220.803 40.1867H223.033V42.4192H220.803V40.1867Z" fill="#1E1E1E"/>
    <path d="M220.803 46.8837H223.033V49.1163H220.803V46.8837Z" fill="#1E1E1E"/>
    <path d="M220.803 53.5822H223.033V55.8148H220.803V53.5822Z" fill="#1E1E1E"/>
    <path d="M220.803 60.2798H223.033V62.5123H220.803V60.2798Z" fill="#1E1E1E"/>
    <path d="M220.803 66.9773H223.033V69.2099H220.803V66.9773Z" fill="#1E1E1E"/>
    <path d="M220.803 73.6748H223.033V75.9074H220.803V73.6748Z" fill="#1E1E1E"/>
    <path d="M220.803 80.3729H223.033V82.6054H220.803V80.3729Z" fill="#1E1E1E"/>
    <path d="M220.803 87.0704H223.033V89.303H220.803V87.0704Z" fill="#1E1E1E"/>
    <path d="M220.803 93.7674H223.033V96H220.803V93.7674Z" fill="#1E1E1E"/>
    <path d="M227.494 0H229.724V2.23256H227.494V0Z" fill="#1E1E1E"/>
    <path d="M227.494 6.69851H229.724V8.93107H227.494V6.69851Z" fill="#1E1E1E"/>
    <path d="M227.494 13.396H229.724V15.6286H227.494V13.396Z" fill="#1E1E1E"/>
    <path d="M227.494 20.0936H229.724V22.3261H227.494V20.0936Z" fill="#1E1E1E"/>
    <path d="M227.494 26.7911H229.724V29.0237H227.494V26.7911Z" fill="#1E1E1E"/>
    <path d="M227.494 33.4891H229.724V35.7217H227.494V33.4891Z" fill="#1E1E1E"/>
    <path d="M227.494 40.1867H229.724V42.4192H227.494V40.1867Z" fill="#1E1E1E"/>
    <path d="M227.494 46.8837H229.724V49.1163H227.494V46.8837Z" fill="#1E1E1E"/>
    <path d="M227.494 53.5822H229.724V55.8148H227.494V53.5822Z" fill="#1E1E1E"/>
    <path d="M227.494 60.2798H229.724V62.5123H227.494V60.2798Z" fill="#1E1E1E"/>
    <path d="M227.494 66.9773H229.724V69.2099H227.494V66.9773Z" fill="#1E1E1E"/>
    <path d="M227.494 73.6748H229.724V75.9074H227.494V73.6748Z" fill="#1E1E1E"/>
    <path d="M227.494 80.3729H229.724V82.6054H227.494V80.3729Z" fill="#1E1E1E"/>
    <path d="M227.494 87.0704H229.724V89.303H227.494V87.0704Z" fill="#1E1E1E"/>
    <path d="M227.494 93.7674H229.724V96H227.494V93.7674Z" fill="#1E1E1E"/>
    <path d="M234.185 0H236.416V2.23256H234.185V0Z" fill="#1E1E1E"/>
    <path d="M234.185 6.69851H236.416V8.93107H234.185V6.69851Z" fill="#1E1E1E"/>
    <path d="M234.185 13.396H236.416V15.6286H234.185V13.396Z" fill="#1E1E1E"/>
    <path d="M234.185 20.0936H236.416V22.3261H234.185V20.0936Z" fill="#1E1E1E"/>
    <path d="M234.185 26.7911H236.416V29.0237H234.185V26.7911Z" fill="#1E1E1E"/>
    <path d="M234.185 33.4891H236.416V35.7217H234.185V33.4891Z" fill="#1E1E1E"/>
    <path d="M234.185 40.1867H236.416V42.4192H234.185V40.1867Z" fill="#1E1E1E"/>
    <path d="M234.185 46.8837H236.416V49.1163H234.185V46.8837Z" fill="#1E1E1E"/>
    <path d="M234.185 53.5822H236.416V55.8148H234.185V53.5822Z" fill="#1E1E1E"/>
    <path d="M234.185 60.2798H236.416V62.5123H234.185V60.2798Z" fill="#1E1E1E"/>
    <path d="M234.185 66.9773H236.416V69.2099H234.185V66.9773Z" fill="#1E1E1E"/>
    <path d="M234.185 73.6748H236.416V75.9074H234.185V73.6748Z" fill="#1E1E1E"/>
    <path d="M234.185 80.3729H236.416V82.6054H234.185V80.3729Z" fill="#1E1E1E"/>
    <path d="M234.185 87.0704H236.416V89.303H234.185V87.0704Z" fill="#1E1E1E"/>
    <path d="M234.185 93.7674H236.416V96H234.185V93.7674Z" fill="#1E1E1E"/>
    <path d="M240.876 0H243.107V2.23256H240.876V0Z" fill="#1E1E1E"/>
    <path d="M240.876 6.69851H243.107V8.93107H240.876V6.69851Z" fill="#1E1E1E"/>
    <path d="M240.876 13.396H243.107V15.6286H240.876V13.396Z" fill="#1E1E1E"/>
    <path d="M240.876 20.0936H243.107V22.3261H240.876V20.0936Z" fill="#1E1E1E"/>
    <path d="M240.876 26.7911H243.107V29.0237H240.876V26.7911Z" fill="#1E1E1E"/>
    <path d="M240.876 33.4891H243.107V35.7217H240.876V33.4891Z" fill="#1E1E1E"/>
    <path d="M240.876 40.1867H243.107V42.4192H240.876V40.1867Z" fill="#1E1E1E"/>
    <path d="M240.876 46.8837H243.107V49.1163H240.876V46.8837Z" fill="#1E1E1E"/>
    <path d="M240.876 53.5822H243.107V55.8148H240.876V53.5822Z" fill="#1E1E1E"/>
    <path d="M240.876 60.2798H243.107V62.5123H240.876V60.2798Z" fill="#1E1E1E"/>
    <path d="M240.876 66.9773H243.107V69.2099H240.876V66.9773Z" fill="#1E1E1E"/>
    <path d="M240.876 73.6748H243.107V75.9074H240.876V73.6748Z" fill="#1E1E1E"/>
    <path d="M240.876 80.3729H243.107V82.6054H240.876V80.3729Z" fill="#1E1E1E"/>
    <path d="M240.876 87.0704H243.107V89.303H240.876V87.0704Z" fill="#1E1E1E"/>
    <path d="M240.876 93.7674H243.107V96H240.876V93.7674Z" fill="#1E1E1E"/>
    <path d="M247.567 0H249.797V2.23256H247.567V0Z" fill="#1E1E1E"/>
    <path d="M247.567 6.69851H249.797V8.93107H247.567V6.69851Z" fill="#1E1E1E"/>
    <path d="M247.567 13.396H249.797V15.6286H247.567V13.396Z" fill="#1E1E1E"/>
    <path d="M247.567 20.0936H249.797V22.3261H247.567V20.0936Z" fill="#1E1E1E"/>
    <path d="M247.567 26.7911H249.797V29.0237H247.567V26.7911Z" fill="#1E1E1E"/>
    <path d="M247.567 33.4891H249.797V35.7217H247.567V33.4891Z" fill="#1E1E1E"/>
    <path d="M247.567 40.1867H249.797V42.4192H247.567V40.1867Z" fill="#1E1E1E"/>
    <path d="M247.567 46.8837H249.797V49.1163H247.567V46.8837Z" fill="#1E1E1E"/>
    <path d="M247.567 53.5822H249.797V55.8148H247.567V53.5822Z" fill="#1E1E1E"/>
    <path d="M247.567 60.2798H249.797V62.5123H247.567V60.2798Z" fill="#1E1E1E"/>
    <path d="M247.567 66.9773H249.797V69.2099H247.567V66.9773Z" fill="#1E1E1E"/>
    <path d="M247.567 73.6748H249.797V75.9074H247.567V73.6748Z" fill="#1E1E1E"/>
    <path d="M247.567 80.3729H249.797V82.6054H247.567V80.3729Z" fill="#1E1E1E"/>
    <path d="M247.567 87.0704H249.797V89.303H247.567V87.0704Z" fill="#1E1E1E"/>
    <path d="M247.567 93.7674H249.797V96H247.567V93.7674Z" fill="#1E1E1E"/>
    <path d="M254.258 0H256.489V2.23256H254.258V0Z" fill="#1E1E1E"/>
    <path d="M254.258 6.69851H256.489V8.93107H254.258V6.69851Z" fill="#1E1E1E"/>
    <path d="M254.258 13.396H256.489V15.6286H254.258V13.396Z" fill="#1E1E1E"/>
    <path d="M254.258 20.0936H256.489V22.3261H254.258V20.0936Z" fill="#1E1E1E"/>
    <path d="M254.258 26.7911H256.489V29.0237H254.258V26.7911Z" fill="#1E1E1E"/>
    <path d="M254.258 33.4891H256.489V35.7217H254.258V33.4891Z" fill="#1E1E1E"/>
    <path d="M254.258 40.1867H256.489V42.4192H254.258V40.1867Z" fill="#1E1E1E"/>
    <path d="M254.258 46.8837H256.489V49.1163H254.258V46.8837Z" fill="#1E1E1E"/>
    <path d="M254.258 53.5822H256.489V55.8148H254.258V53.5822Z" fill="#1E1E1E"/>
    <path d="M254.258 60.2798H256.489V62.5123H254.258V60.2798Z" fill="#1E1E1E"/>
    <path d="M254.258 66.9773H256.489V69.2099H254.258V66.9773Z" fill="#1E1E1E"/>
    <path d="M254.258 73.6748H256.489V75.9074H254.258V73.6748Z" fill="#1E1E1E"/>
    <path d="M254.258 80.3729H256.489V82.6054H254.258V80.3729Z" fill="#1E1E1E"/>
    <path d="M254.258 87.0704H256.489V89.303H254.258V87.0704Z" fill="#1E1E1E"/>
    <path d="M254.258 93.7674H256.489V96H254.258V93.7674Z" fill="#1E1E1E"/>
    <path d="M260.949 0H263.18V2.23256H260.949V0Z" fill="#1E1E1E"/>
    <path d="M260.949 6.69851H263.18V8.93107H260.949V6.69851Z" fill="#1E1E1E"/>
    <path d="M260.949 13.396H263.18V15.6286H260.949V13.396Z" fill="#1E1E1E"/>
    <path d="M260.949 20.0936H263.18V22.3261H260.949V20.0936Z" fill="#1E1E1E"/>
    <path d="M260.949 26.7911H263.18V29.0237H260.949V26.7911Z" fill="#1E1E1E"/>
    <path d="M260.949 33.4891H263.18V35.7217H260.949V33.4891Z" fill="#1E1E1E"/>
    <path d="M260.949 40.1867H263.18V42.4192H260.949V40.1867Z" fill="#1E1E1E"/>
    <path d="M260.949 46.8837H263.18V49.1163H260.949V46.8837Z" fill="#1E1E1E"/>
    <path d="M260.949 53.5822H263.18V55.8148H260.949V53.5822Z" fill="#1E1E1E"/>
    <path d="M260.949 60.2798H263.18V62.5123H260.949V60.2798Z" fill="#1E1E1E"/>
    <path d="M260.949 66.9773H263.18V69.2099H260.949V66.9773Z" fill="#1E1E1E"/>
    <path d="M260.949 73.6748H263.18V75.9074H260.949V73.6748Z" fill="#1E1E1E"/>
    <path d="M260.949 80.3729H263.18V82.6054H260.949V80.3729Z" fill="#1E1E1E"/>
    <path d="M260.949 87.0704H263.18V89.303H260.949V87.0704Z" fill="#1E1E1E"/>
    <path d="M260.949 93.7674H263.18V96H260.949V93.7674Z" fill="#1E1E1E"/>
    <path d="M267.64 0H269.871V2.23256H267.64V0Z" fill="#1E1E1E"/>
    <path d="M267.64 6.69851H269.871V8.93107H267.64V6.69851Z" fill="#1E1E1E"/>
    <path d="M267.64 13.396H269.871V15.6286H267.64V13.396Z" fill="#1E1E1E"/>
    <path d="M267.64 20.0936H269.871V22.3261H267.64V20.0936Z" fill="#1E1E1E"/>
    <path d="M267.64 26.7911H269.871V29.0237H267.64V26.7911Z" fill="#1E1E1E"/>
    <path d="M267.64 33.4891H269.871V35.7217H267.64V33.4891Z" fill="#1E1E1E"/>
    <path d="M267.64 40.1867H269.871V42.4192H267.64V40.1867Z" fill="#1E1E1E"/>
    <path d="M267.64 46.8837H269.871V49.1163H267.64V46.8837Z" fill="#1E1E1E"/>
    <path d="M267.64 53.5822H269.871V55.8148H267.64V53.5822Z" fill="#1E1E1E"/>
    <path d="M267.64 60.2798H269.871V62.5123H267.64V60.2798Z" fill="#1E1E1E"/>
    <path d="M267.64 66.9773H269.871V69.2099H267.64V66.9773Z" fill="#1E1E1E"/>
    <path d="M267.64 73.6748H269.871V75.9074H267.64V73.6748Z" fill="#1E1E1E"/>
    <path d="M267.64 80.3729H269.871V82.6054H267.64V80.3729Z" fill="#1E1E1E"/>
    <path d="M267.64 87.0704H269.871V89.303H267.64V87.0704Z" fill="#1E1E1E"/>
    <path d="M267.64 93.7674H269.871V96H267.64V93.7674Z" fill="#1E1E1E"/>
    <path d="M274.331 0H276.561V2.23256H274.331V0Z" fill="#1E1E1E"/>
    <path d="M274.331 6.69851H276.561V8.93107H274.331V6.69851Z" fill="#1E1E1E"/>
    <path d="M274.331 13.396H276.561V15.6286H274.331V13.396Z" fill="#1E1E1E"/>
    <path d="M274.331 20.0936H276.561V22.3261H274.331V20.0936Z" fill="#1E1E1E"/>
    <path d="M274.331 26.7911H276.561V29.0237H274.331V26.7911Z" fill="#1E1E1E"/>
    <path d="M274.331 33.4891H276.561V35.7217H274.331V33.4891Z" fill="#1E1E1E"/>
    <path d="M274.331 40.1867H276.561V42.4192H274.331V40.1867Z" fill="#1E1E1E"/>
    <path d="M274.331 46.8837H276.561V49.1163H274.331V46.8837Z" fill="#1E1E1E"/>
    <path d="M274.331 53.5822H276.561V55.8148H274.331V53.5822Z" fill="#1E1E1E"/>
    <path d="M274.331 60.2798H276.561V62.5123H274.331V60.2798Z" fill="#1E1E1E"/>
    <path d="M274.331 66.9773H276.561V69.2099H274.331V66.9773Z" fill="#1E1E1E"/>
    <path d="M274.331 73.6748H276.561V75.9074H274.331V73.6748Z" fill="#1E1E1E"/>
    <path d="M274.331 80.3729H276.561V82.6054H274.331V80.3729Z" fill="#1E1E1E"/>
    <path d="M274.331 87.0704H276.561V89.303H274.331V87.0704Z" fill="#1E1E1E"/>
    <path d="M274.331 93.7674H276.561V96H274.331V93.7674Z" fill="#1E1E1E"/>
    <path d="M281.022 0H283.253V2.23256H281.022V0Z" fill="#1E1E1E"/>
    <path d="M281.022 6.69851H283.253V8.93107H281.022V6.69851Z" fill="#1E1E1E"/>
    <path d="M281.022 13.396H283.253V15.6286H281.022V13.396Z" fill="#1E1E1E"/>
    <path d="M281.022 20.0936H283.253V22.3261H281.022V20.0936Z" fill="#1E1E1E"/>
    <path d="M281.022 26.7911H283.253V29.0237H281.022V26.7911Z" fill="#1E1E1E"/>
    <path d="M281.022 33.4891H283.253V35.7217H281.022V33.4891Z" fill="#1E1E1E"/>
    <path d="M281.022 40.1867H283.253V42.4192H281.022V40.1867Z" fill="#1E1E1E"/>
    <path d="M281.022 46.8837H283.253V49.1163H281.022V46.8837Z" fill="#1E1E1E"/>
    <path d="M281.022 53.5822H283.253V55.8148H281.022V53.5822Z" fill="#1E1E1E"/>
    <path d="M281.022 60.2798H283.253V62.5123H281.022V60.2798Z" fill="#1E1E1E"/>
    <path d="M281.022 66.9773H283.253V69.2099H281.022V66.9773Z" fill="#1E1E1E"/>
    <path d="M281.022 73.6748H283.253V75.9074H281.022V73.6748Z" fill="#1E1E1E"/>
    <path d="M281.022 80.3729H283.253V82.6054H281.022V80.3729Z" fill="#1E1E1E"/>
    <path d="M281.022 87.0704H283.253V89.303H281.022V87.0704Z" fill="#1E1E1E"/>
    <path d="M281.022 93.7674H283.253V96H281.022V93.7674Z" fill="#1E1E1E"/>
    <path d="M287.713 0H289.944V2.23256H287.713V0Z" fill="#1E1E1E"/>
    <path d="M287.713 6.69851H289.944V8.93107H287.713V6.69851Z" fill="#1E1E1E"/>
    <path d="M287.713 13.396H289.944V15.6286H287.713V13.396Z" fill="#1E1E1E"/>
    <path d="M287.713 20.0936H289.944V22.3261H287.713V20.0936Z" fill="#1E1E1E"/>
    <path d="M287.713 26.7911H289.944V29.0237H287.713V26.7911Z" fill="#1E1E1E"/>
    <path d="M287.713 33.4891H289.944V35.7217H287.713V33.4891Z" fill="#1E1E1E"/>
    <path d="M287.713 40.1867H289.944V42.4192H287.713V40.1867Z" fill="#1E1E1E"/>
    <path d="M287.713 46.8837H289.944V49.1163H287.713V46.8837Z" fill="#1E1E1E"/>
    <path d="M287.713 53.5822H289.944V55.8148H287.713V53.5822Z" fill="#1E1E1E"/>
    <path d="M287.713 60.2798H289.944V62.5123H287.713V60.2798Z" fill="#1E1E1E"/>
    <path d="M287.713 66.9773H289.944V69.2099H287.713V66.9773Z" fill="#1E1E1E"/>
    <path d="M287.713 73.6748H289.944V75.9074H287.713V73.6748Z" fill="#1E1E1E"/>
    <path d="M287.713 80.3729H289.944V82.6054H287.713V80.3729Z" fill="#1E1E1E"/>
    <path d="M287.713 87.0704H289.944V89.303H287.713V87.0704Z" fill="#1E1E1E"/>
    <path d="M287.713 93.7674H289.944V96H287.713V93.7674Z" fill="#1E1E1E"/>
    <path d="M294.404 0H296.634V2.23256H294.404V0Z" fill="#1E1E1E"/>
    <path d="M294.404 6.69851H296.634V8.93107H294.404V6.69851Z" fill="#1E1E1E"/>
    <path d="M294.404 13.396H296.634V15.6286H294.404V13.396Z" fill="#1E1E1E"/>
    <path d="M294.404 20.0936H296.634V22.3261H294.404V20.0936Z" fill="#1E1E1E"/>
    <path d="M294.404 26.7911H296.634V29.0237H294.404V26.7911Z" fill="#1E1E1E"/>
    <path d="M294.404 33.4891H296.634V35.7217H294.404V33.4891Z" fill="#1E1E1E"/>
    <path d="M294.404 40.1867H296.634V42.4192H294.404V40.1867Z" fill="#1E1E1E"/>
    <path d="M294.404 46.8837H296.634V49.1163H294.404V46.8837Z" fill="#1E1E1E"/>
    <path d="M294.404 53.5822H296.634V55.8148H294.404V53.5822Z" fill="#1E1E1E"/>
    <path d="M294.404 60.2798H296.634V62.5123H294.404V60.2798Z" fill="#1E1E1E"/>
    <path d="M294.404 66.9773H296.634V69.2099H294.404V66.9773Z" fill="#1E1E1E"/>
    <path d="M294.404 73.6748H296.634V75.9074H294.404V73.6748Z" fill="#1E1E1E"/>
    <path d="M294.404 80.3729H296.634V82.6054H294.404V80.3729Z" fill="#1E1E1E"/>
    <path d="M294.404 87.0704H296.634V89.303H294.404V87.0704Z" fill="#1E1E1E"/>
    <path d="M294.404 93.7674H296.634V96H294.404V93.7674Z" fill="#1E1E1E"/>
    <path d="M301.096 0H303.326V2.23256H301.096V0Z" fill="#1E1E1E"/>
    <path d="M301.096 6.69851H303.326V8.93107H301.096V6.69851Z" fill="#1E1E1E"/>
    <path d="M301.096 13.396H303.326V15.6286H301.096V13.396Z" fill="#1E1E1E"/>
    <path d="M301.096 20.0936H303.326V22.3261H301.096V20.0936Z" fill="#1E1E1E"/>
    <path d="M301.096 26.7911H303.326V29.0237H301.096V26.7911Z" fill="#1E1E1E"/>
    <path d="M301.096 33.4891H303.326V35.7217H301.096V33.4891Z" fill="#1E1E1E"/>
    <path d="M301.096 40.1867H303.326V42.4192H301.096V40.1867Z" fill="#1E1E1E"/>
    <path d="M301.096 46.8837H303.326V49.1163H301.096V46.8837Z" fill="#1E1E1E"/>
    <path d="M301.096 53.5822H303.326V55.8148H301.096V53.5822Z" fill="#1E1E1E"/>
    <path d="M301.096 60.2798H303.326V62.5123H301.096V60.2798Z" fill="#1E1E1E"/>
    <path d="M301.096 66.9773H303.326V69.2099H301.096V66.9773Z" fill="#1E1E1E"/>
    <path d="M301.096 73.6748H303.326V75.9074H301.096V73.6748Z" fill="#1E1E1E"/>
    <path d="M301.096 80.3729H303.326V82.6054H301.096V80.3729Z" fill="#1E1E1E"/>
    <path d="M301.096 87.0704H303.326V89.303H301.096V87.0704Z" fill="#1E1E1E"/>
    <path d="M301.096 93.7674H303.326V96H301.096V93.7674Z" fill="#1E1E1E"/>
    <path d="M307.786 0H310.017V2.23256H307.786V0Z" fill="#1E1E1E"/>
    <path d="M307.786 6.69851H310.017V8.93107H307.786V6.69851Z" fill="#1E1E1E"/>
    <path d="M307.786 13.396H310.017V15.6286H307.786V13.396Z" fill="#1E1E1E"/>
    <path d="M307.786 20.0936H310.017V22.3261H307.786V20.0936Z" fill="#1E1E1E"/>
    <path d="M307.786 26.7911H310.017V29.0237H307.786V26.7911Z" fill="#1E1E1E"/>
    <path d="M307.786 33.4891H310.017V35.7217H307.786V33.4891Z" fill="#1E1E1E"/>
    <path d="M307.786 40.1867H310.017V42.4192H307.786V40.1867Z" fill="#1E1E1E"/>
    <path d="M307.786 46.8837H310.017V49.1163H307.786V46.8837Z" fill="#1E1E1E"/>
    <path d="M307.786 53.5822H310.017V55.8148H307.786V53.5822Z" fill="#1E1E1E"/>
    <path d="M307.786 60.2798H310.017V62.5123H307.786V60.2798Z" fill="#1E1E1E"/>
    <path d="M307.786 66.9773H310.017V69.2099H307.786V66.9773Z" fill="#1E1E1E"/>
    <path d="M307.786 73.6748H310.017V75.9074H307.786V73.6748Z" fill="#1E1E1E"/>
    <path d="M307.786 80.3729H310.017V82.6054H307.786V80.3729Z" fill="#1E1E1E"/>
    <path d="M307.786 87.0704H310.017V89.303H307.786V87.0704Z" fill="#1E1E1E"/>
    <path d="M307.786 93.7674H310.017V96H307.786V93.7674Z" fill="#1E1E1E"/>
    <path d="M314.477 0H316.708V2.23256H314.477V0Z" fill="#1E1E1E"/>
    <path d="M314.477 6.69851H316.708V8.93107H314.477V6.69851Z" fill="#1E1E1E"/>
    <path d="M314.477 13.396H316.708V15.6286H314.477V13.396Z" fill="#1E1E1E"/>
    <path d="M314.477 20.0936H316.708V22.3261H314.477V20.0936Z" fill="#1E1E1E"/>
    <path d="M314.477 26.7911H316.708V29.0237H314.477V26.7911Z" fill="#1E1E1E"/>
    <path d="M314.477 33.4891H316.708V35.7217H314.477V33.4891Z" fill="#1E1E1E"/>
    <path d="M314.477 40.1867H316.708V42.4192H314.477V40.1867Z" fill="#1E1E1E"/>
    <path d="M314.477 46.8837H316.708V49.1163H314.477V46.8837Z" fill="#1E1E1E"/>
    <path d="M314.477 53.5822H316.708V55.8148H314.477V53.5822Z" fill="#1E1E1E"/>
    <path d="M314.477 60.2798H316.708V62.5123H314.477V60.2798Z" fill="#1E1E1E"/>
    <path d="M314.477 66.9773H316.708V69.2099H314.477V66.9773Z" fill="#1E1E1E"/>
    <path d="M314.477 73.6748H316.708V75.9074H314.477V73.6748Z" fill="#1E1E1E"/>
    <path d="M314.477 80.3729H316.708V82.6054H314.477V80.3729Z" fill="#1E1E1E"/>
    <path d="M314.477 87.0704H316.708V89.303H314.477V87.0704Z" fill="#1E1E1E"/>
    <path d="M314.477 93.7674H316.708V96H314.477V93.7674Z" fill="#1E1E1E"/>
    <path d="M321.168 0H323.398V2.23256H321.168V0Z" fill="#1E1E1E"/>
    <path d="M321.168 6.69851H323.398V8.93107H321.168V6.69851Z" fill="#1E1E1E"/>
    <path d="M321.168 13.396H323.398V15.6286H321.168V13.396Z" fill="#1E1E1E"/>
    <path d="M321.168 20.0936H323.398V22.3261H321.168V20.0936Z" fill="#1E1E1E"/>
    <path d="M321.168 26.7911H323.398V29.0237H321.168V26.7911Z" fill="#1E1E1E"/>
    <path d="M321.168 33.4891H323.398V35.7217H321.168V33.4891Z" fill="#1E1E1E"/>
    <path d="M321.168 40.1867H323.398V42.4192H321.168V40.1867Z" fill="#1E1E1E"/>
    <path d="M321.168 46.8837H323.398V49.1163H321.168V46.8837Z" fill="#1E1E1E"/>
    <path d="M321.168 53.5822H323.398V55.8148H321.168V53.5822Z" fill="#1E1E1E"/>
    <path d="M321.168 60.2798H323.398V62.5123H321.168V60.2798Z" fill="#1E1E1E"/>
    <path d="M321.168 66.9773H323.398V69.2099H321.168V66.9773Z" fill="#1E1E1E"/>
    <path d="M321.168 73.6748H323.398V75.9074H321.168V73.6748Z" fill="#1E1E1E"/>
    <path d="M321.168 80.3729H323.398V82.6054H321.168V80.3729Z" fill="#1E1E1E"/>
    <path d="M321.168 87.0704H323.398V89.303H321.168V87.0704Z" fill="#1E1E1E"/>
    <path d="M321.168 93.7674H323.398V96H321.168V93.7674Z" fill="#1E1E1E"/>
    <path d="M327.859 0H330.09V2.23256H327.859V0Z" fill="#1E1E1E"/>
    <path d="M327.859 6.69851H330.09V8.93107H327.859V6.69851Z" fill="#1E1E1E"/>
    <path d="M327.859 13.396H330.09V15.6286H327.859V13.396Z" fill="#1E1E1E"/>
    <path d="M327.859 20.0936H330.09V22.3261H327.859V20.0936Z" fill="#1E1E1E"/>
    <path d="M327.859 26.7911H330.09V29.0237H327.859V26.7911Z" fill="#1E1E1E"/>
    <path d="M327.859 33.4891H330.09V35.7217H327.859V33.4891Z" fill="#1E1E1E"/>
    <path d="M327.859 40.1867H330.09V42.4192H327.859V40.1867Z" fill="#1E1E1E"/>
    <path d="M327.859 46.8837H330.09V49.1163H327.859V46.8837Z" fill="#1E1E1E"/>
    <path d="M327.859 53.5822H330.09V55.8148H327.859V53.5822Z" fill="#1E1E1E"/>
    <path d="M327.859 60.2798H330.09V62.5123H327.859V60.2798Z" fill="#1E1E1E"/>
    <path d="M327.859 66.9773H330.09V69.2099H327.859V66.9773Z" fill="#1E1E1E"/>
    <path d="M327.859 73.6748H330.09V75.9074H327.859V73.6748Z" fill="#1E1E1E"/>
    <path d="M327.859 80.3729H330.09V82.6054H327.859V80.3729Z" fill="#1E1E1E"/>
    <path d="M327.859 87.0704H330.09V89.303H327.859V87.0704Z" fill="#1E1E1E"/>
    <path d="M327.859 93.7674H330.09V96H327.859V93.7674Z" fill="#1E1E1E"/>
    <path d="M334.55 0H336.781V2.23256H334.55V0Z" fill="#1E1E1E"/>
    <path d="M334.55 6.69851H336.781V8.93107H334.55V6.69851Z" fill="#1E1E1E"/>
    <path d="M334.55 13.396H336.781V15.6286H334.55V13.396Z" fill="#1E1E1E"/>
    <path d="M334.55 20.0936H336.781V22.3261H334.55V20.0936Z" fill="#1E1E1E"/>
    <path d="M334.55 26.7911H336.781V29.0237H334.55V26.7911Z" fill="#1E1E1E"/>
    <path d="M334.55 33.4891H336.781V35.7217H334.55V33.4891Z" fill="#1E1E1E"/>
    <path d="M334.55 40.1867H336.781V42.4192H334.55V40.1867Z" fill="#1E1E1E"/>
    <path d="M334.55 46.8837H336.781V49.1163H334.55V46.8837Z" fill="#1E1E1E"/>
    <path d="M334.55 53.5822H336.781V55.8148H334.55V53.5822Z" fill="#1E1E1E"/>
    <path d="M334.55 60.2798H336.781V62.5123H334.55V60.2798Z" fill="#1E1E1E"/>
    <path d="M334.55 66.9773H336.781V69.2099H334.55V66.9773Z" fill="#1E1E1E"/>
    <path d="M334.55 73.6748H336.781V75.9074H334.55V73.6748Z" fill="#1E1E1E"/>
    <path d="M334.55 80.3729H336.781V82.6054H334.55V80.3729Z" fill="#1E1E1E"/>
    <path d="M334.55 87.0704H336.781V89.303H334.55V87.0704Z" fill="#1E1E1E"/>
    <path d="M334.55 93.7674H336.781V96H334.55V93.7674Z" fill="#1E1E1E"/>
    <path d="M341.241 0H343.472V2.23256H341.241V0Z" fill="#1E1E1E"/>
    <path d="M341.241 6.69851H343.472V8.93107H341.241V6.69851Z" fill="#1E1E1E"/>
    <path d="M341.241 13.396H343.472V15.6286H341.241V13.396Z" fill="#1E1E1E"/>
    <path d="M341.241 20.0936H343.472V22.3261H341.241V20.0936Z" fill="#1E1E1E"/>
    <path d="M341.241 26.7911H343.472V29.0237H341.241V26.7911Z" fill="#1E1E1E"/>
    <path d="M341.241 33.4891H343.472V35.7217H341.241V33.4891Z" fill="#1E1E1E"/>
    <path d="M341.241 40.1867H343.472V42.4192H341.241V40.1867Z" fill="#1E1E1E"/>
    <path d="M341.241 46.8837H343.472V49.1163H341.241V46.8837Z" fill="#1E1E1E"/>
    <path d="M341.241 53.5822H343.472V55.8148H341.241V53.5822Z" fill="#1E1E1E"/>
    <path d="M341.241 60.2798H343.472V62.5123H341.241V60.2798Z" fill="#1E1E1E"/>
    <path d="M341.241 66.9773H343.472V69.2099H341.241V66.9773Z" fill="#1E1E1E"/>
    <path d="M341.241 73.6748H343.472V75.9074H341.241V73.6748Z" fill="#1E1E1E"/>
    <path d="M341.241 80.3729H343.472V82.6054H341.241V80.3729Z" fill="#1E1E1E"/>
    <path d="M341.241 87.0704H343.472V89.303H341.241V87.0704Z" fill="#1E1E1E"/>
    <path d="M341.241 93.7674H343.472V96H341.241V93.7674Z" fill="#1E1E1E"/>
    <path d="M347.933 0H350.163V2.23256H347.933V0Z" fill="#1E1E1E"/>
    <path d="M347.933 6.69851H350.163V8.93107H347.933V6.69851Z" fill="#1E1E1E"/>
    <path d="M347.933 13.396H350.163V15.6286H347.933V13.396Z" fill="#1E1E1E"/>
    <path d="M347.933 20.0936H350.163V22.3261H347.933V20.0936Z" fill="#1E1E1E"/>
    <path d="M347.933 26.7911H350.163V29.0237H347.933V26.7911Z" fill="#1E1E1E"/>
    <path d="M347.933 33.4891H350.163V35.7217H347.933V33.4891Z" fill="#1E1E1E"/>
    <path d="M347.933 40.1867H350.163V42.4192H347.933V40.1867Z" fill="#1E1E1E"/>
    <path d="M347.933 46.8837H350.163V49.1163H347.933V46.8837Z" fill="#1E1E1E"/>
    <path d="M347.933 53.5822H350.163V55.8148H347.933V53.5822Z" fill="#1E1E1E"/>
    <path d="M347.933 60.2798H350.163V62.5123H347.933V60.2798Z" fill="#1E1E1E"/>
    <path d="M347.933 66.9773H350.163V69.2099H347.933V66.9773Z" fill="#1E1E1E"/>
    <path d="M347.933 73.6748H350.163V75.9074H347.933V73.6748Z" fill="#1E1E1E"/>
    <path d="M347.933 80.3729H350.163V82.6054H347.933V80.3729Z" fill="#1E1E1E"/>
    <path d="M347.933 87.0704H350.163V89.303H347.933V87.0704Z" fill="#1E1E1E"/>
    <path d="M347.933 93.7674H350.163V96H347.933V93.7674Z" fill="#1E1E1E"/>
    <path d="M354.623 0H356.854V2.23256H354.623V0Z" fill="#1E1E1E"/>
    <path d="M354.623 6.69851H356.854V8.93107H354.623V6.69851Z" fill="#1E1E1E"/>
    <path d="M354.623 13.396H356.854V15.6286H354.623V13.396Z" fill="#1E1E1E"/>
    <path d="M354.623 20.0936H356.854V22.3261H354.623V20.0936Z" fill="#1E1E1E"/>
    <path d="M354.623 26.7911H356.854V29.0237H354.623V26.7911Z" fill="#1E1E1E"/>
    <path d="M354.623 33.4891H356.854V35.7217H354.623V33.4891Z" fill="#1E1E1E"/>
    <path d="M354.623 40.1867H356.854V42.4192H354.623V40.1867Z" fill="#1E1E1E"/>
    <path d="M354.623 46.8837H356.854V49.1163H354.623V46.8837Z" fill="#1E1E1E"/>
    <path d="M354.623 53.5822H356.854V55.8148H354.623V53.5822Z" fill="#1E1E1E"/>
    <path d="M354.623 60.2798H356.854V62.5123H354.623V60.2798Z" fill="#1E1E1E"/>
    <path d="M354.623 66.9773H356.854V69.2099H354.623V66.9773Z" fill="#1E1E1E"/>
    <path d="M354.623 73.6748H356.854V75.9074H354.623V73.6748Z" fill="#1E1E1E"/>
    <path d="M354.623 80.3729H356.854V82.6054H354.623V80.3729Z" fill="#1E1E1E"/>
    <path d="M354.623 87.0704H356.854V89.303H354.623V87.0704Z" fill="#1E1E1E"/>
    <path d="M354.623 93.7674H356.854V96H354.623V93.7674Z" fill="#1E1E1E"/>
    <path d="M361.314 0H363.545V2.23256H361.314V0Z" fill="#1E1E1E"/>
    <path d="M361.314 6.69851H363.545V8.93107H361.314V6.69851Z" fill="#1E1E1E"/>
    <path d="M361.314 13.396H363.545V15.6286H361.314V13.396Z" fill="#1E1E1E"/>
    <path d="M361.314 20.0936H363.545V22.3261H361.314V20.0936Z" fill="#1E1E1E"/>
    <path d="M361.314 26.7911H363.545V29.0237H361.314V26.7911Z" fill="#1E1E1E"/>
    <path d="M361.314 33.4891H363.545V35.7217H361.314V33.4891Z" fill="#1E1E1E"/>
    <path d="M361.314 40.1867H363.545V42.4192H361.314V40.1867Z" fill="#1E1E1E"/>
    <path d="M361.314 46.8837H363.545V49.1163H361.314V46.8837Z" fill="#1E1E1E"/>
    <path d="M361.314 53.5822H363.545V55.8148H361.314V53.5822Z" fill="#1E1E1E"/>
    <path d="M361.314 60.2798H363.545V62.5123H361.314V60.2798Z" fill="#1E1E1E"/>
    <path d="M361.314 66.9773H363.545V69.2099H361.314V66.9773Z" fill="#1E1E1E"/>
    <path d="M361.314 73.6748H363.545V75.9074H361.314V73.6748Z" fill="#1E1E1E"/>
    <path d="M361.314 80.3729H363.545V82.6054H361.314V80.3729Z" fill="#1E1E1E"/>
    <path d="M361.314 87.0704H363.545V89.303H361.314V87.0704Z" fill="#1E1E1E"/>
    <path d="M361.314 93.7674H363.545V96H361.314V93.7674Z" fill="#1E1E1E"/>
    <path d="M368.005 0H370.236V2.23256H368.005V0Z" fill="#1E1E1E"/>
    <path d="M368.005 6.69851H370.236V8.93107H368.005V6.69851Z" fill="#1E1E1E"/>
    <path d="M368.005 13.396H370.236V15.6286H368.005V13.396Z" fill="#1E1E1E"/>
    <path d="M368.005 20.0936H370.236V22.3261H368.005V20.0936Z" fill="#1E1E1E"/>
    <path d="M368.005 26.7911H370.236V29.0237H368.005V26.7911Z" fill="#1E1E1E"/>
    <path d="M368.005 33.4891H370.236V35.7217H368.005V33.4891Z" fill="#1E1E1E"/>
    <path d="M368.005 40.1867H370.236V42.4192H368.005V40.1867Z" fill="#1E1E1E"/>
    <path d="M368.005 46.8837H370.236V49.1163H368.005V46.8837Z" fill="#1E1E1E"/>
    <path d="M368.005 53.5822H370.236V55.8148H368.005V53.5822Z" fill="#1E1E1E"/>
    <path d="M368.005 60.2798H370.236V62.5123H368.005V60.2798Z" fill="#1E1E1E"/>
    <path d="M368.005 66.9773H370.236V69.2099H368.005V66.9773Z" fill="#1E1E1E"/>
    <path d="M368.005 73.6748H370.236V75.9074H368.005V73.6748Z" fill="#1E1E1E"/>
    <path d="M368.005 80.3729H370.236V82.6054H368.005V80.3729Z" fill="#1E1E1E"/>
    <path d="M368.005 87.0704H370.236V89.303H368.005V87.0704Z" fill="#1E1E1E"/>
    <path d="M368.005 93.7674H370.236V96H368.005V93.7674Z" fill="#1E1E1E"/>
    <path d="M374.697 0H376.927V2.23256H374.697V0Z" fill="#1E1E1E"/>
    <path d="M374.697 6.69851H376.927V8.93107H374.697V6.69851Z" fill="#1E1E1E"/>
    <path d="M374.697 13.396H376.927V15.6286H374.697V13.396Z" fill="#1E1E1E"/>
    <path d="M374.697 20.0936H376.927V22.3261H374.697V20.0936Z" fill="#1E1E1E"/>
    <path d="M374.697 26.7911H376.927V29.0237H374.697V26.7911Z" fill="#1E1E1E"/>
    <path d="M374.697 33.4891H376.927V35.7217H374.697V33.4891Z" fill="#1E1E1E"/>
    <path d="M374.697 40.1867H376.927V42.4192H374.697V40.1867Z" fill="#1E1E1E"/>
    <path d="M374.697 46.8837H376.927V49.1163H374.697V46.8837Z" fill="#1E1E1E"/>
    <path d="M374.697 53.5822H376.927V55.8148H374.697V53.5822Z" fill="#1E1E1E"/>
    <path d="M374.697 60.2798H376.927V62.5123H374.697V60.2798Z" fill="#1E1E1E"/>
    <path d="M374.697 66.9773H376.927V69.2099H374.697V66.9773Z" fill="#1E1E1E"/>
    <path d="M374.697 73.6748H376.927V75.9074H374.697V73.6748Z" fill="#1E1E1E"/>
    <path d="M374.697 80.3729H376.927V82.6054H374.697V80.3729Z" fill="#1E1E1E"/>
    <path d="M374.697 87.0704H376.927V89.303H374.697V87.0704Z" fill="#1E1E1E"/>
    <path d="M374.697 93.7674H376.927V96H374.697V93.7674Z" fill="#1E1E1E"/>
    <path d="M381.387 0H383.618V2.23256H381.387V0Z" fill="#1E1E1E"/>
    <path d="M381.387 6.69851H383.618V8.93107H381.387V6.69851Z" fill="#1E1E1E"/>
    <path d="M381.387 13.396H383.618V15.6286H381.387V13.396Z" fill="#1E1E1E"/>
    <path d="M381.387 20.0936H383.618V22.3261H381.387V20.0936Z" fill="#1E1E1E"/>
    <path d="M381.387 26.7911H383.618V29.0237H381.387V26.7911Z" fill="#1E1E1E"/>
    <path d="M381.387 33.4891H383.618V35.7217H381.387V33.4891Z" fill="#1E1E1E"/>
    <path d="M381.387 40.1867H383.618V42.4192H381.387V40.1867Z" fill="#1E1E1E"/>
    <path d="M381.387 46.8837H383.618V49.1163H381.387V46.8837Z" fill="#1E1E1E"/>
    <path d="M381.387 53.5822H383.618V55.8148H381.387V53.5822Z" fill="#1E1E1E"/>
    <path d="M381.387 60.2798H383.618V62.5123H381.387V60.2798Z" fill="#1E1E1E"/>
    <path d="M381.387 66.9773H383.618V69.2099H381.387V66.9773Z" fill="#1E1E1E"/>
    <path d="M381.387 73.6748H383.618V75.9074H381.387V73.6748Z" fill="#1E1E1E"/>
    <path d="M381.387 80.3729H383.618V82.6054H381.387V80.3729Z" fill="#1E1E1E"/>
    <path d="M381.387 87.0704H383.618V89.303H381.387V87.0704Z" fill="#1E1E1E"/>
    <path d="M381.387 93.7674H383.618V96H381.387V93.7674Z" fill="#1E1E1E"/>
    <path d="M388.078 0H390.309V2.23256H388.078V0Z" fill="#1E1E1E"/>
    <path d="M388.078 6.69851H390.309V8.93107H388.078V6.69851Z" fill="#1E1E1E"/>
    <path d="M388.078 13.396H390.309V15.6286H388.078V13.396Z" fill="#1E1E1E"/>
    <path d="M388.078 20.0936H390.309V22.3261H388.078V20.0936Z" fill="#1E1E1E"/>
    <path d="M388.078 26.7911H390.309V29.0237H388.078V26.7911Z" fill="#1E1E1E"/>
    <path d="M388.078 33.4891H390.309V35.7217H388.078V33.4891Z" fill="#1E1E1E"/>
    <path d="M388.078 40.1867H390.309V42.4192H388.078V40.1867Z" fill="#1E1E1E"/>
    <path d="M388.078 46.8837H390.309V49.1163H388.078V46.8837Z" fill="#1E1E1E"/>
    <path d="M388.078 53.5822H390.309V55.8148H388.078V53.5822Z" fill="#1E1E1E"/>
    <path d="M388.078 60.2798H390.309V62.5123H388.078V60.2798Z" fill="#1E1E1E"/>
    <path d="M388.078 66.9773H390.309V69.2099H388.078V66.9773Z" fill="#1E1E1E"/>
    <path d="M388.078 73.6748H390.309V75.9074H388.078V73.6748Z" fill="#1E1E1E"/>
    <path d="M388.078 80.3729H390.309V82.6054H388.078V80.3729Z" fill="#1E1E1E"/>
    <path d="M388.078 87.0704H390.309V89.303H388.078V87.0704Z" fill="#1E1E1E"/>
    <path d="M388.078 93.7674H390.309V96H388.078V93.7674Z" fill="#1E1E1E"/>
    <path d="M394.77 0H397V2.23256H394.77V0Z" fill="#1E1E1E"/>
    <path d="M394.77 6.69851H397V8.93107H394.77V6.69851Z" fill="#1E1E1E"/>
    <path d="M394.77 13.396H397V15.6286H394.77V13.396Z" fill="#1E1E1E"/>
    <path d="M394.77 20.0936H397V22.3261H394.77V20.0936Z" fill="#1E1E1E"/>
    <path d="M394.77 26.7911H397V29.0237H394.77V26.7911Z" fill="#1E1E1E"/>
    <path d="M394.77 33.4891H397V35.7217H394.77V33.4891Z" fill="#1E1E1E"/>
    <path d="M394.77 40.1867H397V42.4192H394.77V40.1867Z" fill="#1E1E1E"/>
    <path d="M394.77 46.8837H397V49.1163H394.77V46.8837Z" fill="#1E1E1E"/>
    <path d="M394.77 53.5822H397V55.8148H394.77V53.5822Z" fill="#1E1E1E"/>
    <path d="M394.77 60.2798H397V62.5123H394.77V60.2798Z" fill="#1E1E1E"/>
    <path d="M394.77 66.9773H397V69.2099H394.77V66.9773Z" fill="#1E1E1E"/>
    <path d="M394.77 73.6748H397V75.9074H394.77V73.6748Z" fill="#1E1E1E"/>
    <path d="M394.77 80.3729H397V82.6054H394.77V80.3729Z" fill="#1E1E1E"/>
    <path d="M394.77 87.0704H397V89.303H394.77V87.0704Z" fill="#1E1E1E"/>
    <path d="M394.77 93.7674H397V96H394.77V93.7674Z" fill="#1E1E1E"/>
</svg>
