<svg width="252" height="65" viewBox="0 0 252 65" fill="none" xmlns="http://www.w3.org/2000/svg">
    <path d="M50.9377 57.5C64.7104 57.5 75.8753 46.3071 75.8753 32.5C75.8753 18.6929 64.7104 7.5 50.9377 7.5C37.165 7.5 26 18.6929 26 32.5C26 46.3071 37.165 57.5 50.9377 57.5Z" fill="white"/>
    <path d="M61.8401 16.7508C59.3068 16.8394 57.0954 18.239 55.4495 20.1756C53.6269 22.2985 52.4144 24.8166 51.5408 27.3871C49.9779 26.103 48.7723 24.4407 46.2651 23.7158C44.3272 23.1581 42.2918 23.3885 40.4201 24.7866C39.5333 25.4506 38.9225 26.4543 38.632 27.3979C37.8798 29.8497 39.4227 32.032 40.1235 32.8154L41.6556 34.4615C41.9714 34.7842 42.7321 35.6262 42.3602 36.8332C41.9583 38.1458 40.3801 38.9955 38.7611 38.4948C38.0381 38.2737 36.9992 37.7337 37.2321 36.9734C37.3281 36.6622 37.5502 36.4296 37.6693 36.1608C37.7784 35.9297 37.8306 35.7564 37.8637 35.6547C38.1595 34.6864 37.7553 33.427 36.7211 33.1073C35.756 32.8107 34.7686 33.0457 34.386 34.2913C33.9519 35.7063 34.6273 38.2745 38.2455 39.3929C42.4847 40.6986 46.0707 38.3846 46.5794 35.3666C46.8998 33.4763 46.0484 32.072 44.4886 30.2657L43.2177 28.8568C42.4478 28.0857 42.1835 26.7716 42.9803 25.7618C43.6526 24.9098 44.61 24.5462 46.1783 24.9737C48.4673 25.5969 49.4877 27.1891 51.1904 28.4732C50.4873 30.7849 50.0278 33.105 49.6121 35.1856L49.3586 36.7369C48.1415 43.1366 47.2125 46.6507 44.7983 48.6681C44.3119 49.0147 43.6165 49.5339 42.5684 49.5701C42.019 49.587 41.8415 49.2081 41.8339 49.0432C41.8208 48.6565 42.1458 48.4794 42.3617 48.3053C42.6845 48.1289 43.1724 47.8362 43.1393 46.8987C43.104 45.791 42.1889 44.8305 40.8657 44.8744C39.8745 44.9083 38.3639 45.8434 38.4207 47.555C38.4799 49.3228 40.1235 50.6477 42.6015 50.5638C43.9262 50.5183 46.8844 49.9776 49.7996 46.5035C53.1928 42.5211 54.1417 37.9556 54.8555 34.614L55.6524 30.2025C56.0949 30.2557 56.5683 30.2911 57.0831 30.3034C61.3091 30.3928 63.4229 28.1982 63.4544 26.6021C63.4752 25.6362 62.8221 24.6856 61.9077 24.7072C61.253 24.7257 60.4309 25.1625 60.2334 26.0699C60.0406 26.9603 61.5781 27.7638 60.3763 28.5441C59.5227 29.0979 57.9921 29.4885 55.8368 29.1711L56.2286 26.9996C57.0285 22.8816 58.0151 17.8161 61.7579 17.6929C62.0306 17.679 63.0288 17.7052 63.0518 18.3669C63.0587 18.588 63.0042 18.6442 62.746 19.1503C62.4832 19.5447 62.3841 19.8805 62.3964 20.2665C62.4325 21.3179 63.2301 22.0089 64.3834 21.9673C65.9279 21.9172 66.372 20.4097 66.3466 19.6356C66.2844 17.8169 64.3719 16.6676 61.8401 16.7508Z" fill="#0A0A0A"/>
    <path d="M177.203 25.4665C182.95 25.4665 186.807 29.6315 186.807 35.3933C186.807 40.8224 182.876 45.3194 177.203 45.3194C171.49 45.3194 167.56 40.8224 167.56 35.3933C167.56 29.6315 171.415 25.4665 177.203 25.4665ZM177.203 42.497C181.28 42.497 183.097 38.7788 183.097 35.3933C183.097 31.7883 180.909 28.2935 177.203 28.2935C173.455 28.2935 171.268 31.7883 171.268 35.3933C171.268 38.778 173.085 42.497 177.203 42.497ZM167.082 27.2312V25.9117H162.073V24.1084C162.073 21.5434 162.444 19.6084 165.447 19.6084C165.503 19.6084 165.562 19.6122 165.619 19.6145C165.626 19.6145 165.625 19.6053 165.632 19.6053C166.465 19.6669 167.158 18.986 167.205 18.1517L167.267 17.0071C166.564 16.8946 165.819 16.7837 164.932 16.7837C159.777 16.7837 158.589 19.7956 158.589 24.4066V25.9125H154.136V27.3861C154.25 28.1487 154.901 28.7356 155.697 28.7356C155.701 28.7356 155.703 28.7395 155.709 28.7395H158.589V44.8749H160.51L160.514 44.8741C161.313 44.8741 161.968 44.2741 162.074 43.5038V28.7395H165.561C165.957 28.7257 166.334 28.5629 166.615 28.2834C166.897 28.0039 167.064 27.6282 167.082 27.2312ZM120.645 25.9117C120.639 25.9117 120.635 25.9163 120.626 25.9163C119.892 25.9163 119.18 26.4224 118.87 27.1064L114.072 41.6034H113.998L109.307 27.1141C109 26.4263 108.285 25.9163 107.546 25.9163C107.538 25.9163 107.535 25.9117 107.528 25.9117H105.097L111.513 43.6108C111.737 44.2432 112.183 45.2107 112.183 45.6182C112.183 45.9903 111.143 50.3016 108.026 50.3016C107.95 50.3016 107.872 50.2947 107.796 50.2885C107.001 50.2446 106.401 50.8008 106.268 51.6589L106.172 52.8683C106.802 52.98 107.436 53.1286 108.548 53.1286C113.146 53.1286 114.518 48.9267 115.817 45.2831L122.789 25.9109L120.645 25.9117ZM98.4825 29.7632C95.6034 28.2865 92.453 27.2844 92.3985 24.3126C92.4077 21.1567 95.2999 20.3286 97.5289 20.3309C97.5381 20.3294 97.5474 20.3294 97.5527 20.3294C98.5209 20.3294 99.2954 20.4257 100.051 20.5913C100.061 20.5913 100.059 20.5789 100.071 20.5789C100.87 20.6375 101.54 20.0112 101.634 19.2217L101.698 18.0755C100.237 17.7111 98.7099 17.527 97.3806 17.527C92.5329 17.5571 88.9346 20.002 88.9231 24.6661C88.93 28.7456 91.6723 30.3271 94.6214 31.7583C97.5135 33.1525 100.682 34.3041 100.71 37.6695C100.692 41.1821 97.3115 42.477 94.9817 42.4816C93.6194 42.477 92.1403 42.1357 90.894 41.7421C90.1125 41.6127 89.4717 42.3036 89.3711 43.2188L89.265 44.2409C90.9785 44.7956 92.7358 45.2793 94.5015 45.2793H94.5223C99.9508 45.24 104.171 43.0693 104.187 37.4338C104.178 33.0855 101.418 31.2591 98.4825 29.7632ZM151.211 44.8741L151.215 44.8734C151.968 44.8734 152.595 44.3442 152.755 43.6378V32.7173C152.755 28.59 151.013 25.4665 146.189 25.4665C144.484 25.4665 141.629 26.4347 140.331 29.1477C139.328 26.5819 137.143 25.4665 134.953 25.4665C132.172 25.4665 130.279 26.4702 128.947 28.6648H128.871V27.4847C128.867 27.0676 128.698 26.669 128.403 26.3755C128.107 26.0819 127.708 25.9169 127.292 25.9163C127.286 25.9163 127.281 25.9117 127.275 25.9117H125.608V44.8741H127.496L127.5 44.8734C127.92 44.8731 128.322 44.706 128.619 44.4086C128.915 44.1112 129.082 43.7079 129.082 43.2873C129.082 43.2642 129.091 43.255 129.095 43.2388V35.3201C129.095 31.7883 130.504 28.2935 134.064 28.2935C136.883 28.2935 137.441 31.2291 137.441 33.5723V44.8749H139.355L139.36 44.8741C139.754 44.8731 140.132 44.7244 140.422 44.4574C140.712 44.1904 140.891 43.8244 140.925 43.4314V35.3201C140.925 31.7883 142.335 28.2935 145.895 28.2935C148.713 28.2935 149.271 31.2291 149.271 33.5723V44.8749L151.211 44.8741ZM205.084 44.8741L205.09 44.8734C205.496 44.8728 205.887 44.7152 206.18 44.4334C206.473 44.1516 206.647 43.7673 206.665 43.3605V33.6085C206.665 28.5161 204.475 25.4657 199.579 25.4657C196.946 25.4657 194.427 26.7683 193.386 28.9251H193.312V27.5085C193.312 27.5078 193.309 27.5078 193.309 27.5039C193.309 27.2955 193.268 27.0891 193.189 26.8964C193.11 26.7038 192.993 26.5287 192.846 26.3812C192.7 26.2338 192.525 26.1168 192.333 26.037C192.141 25.9572 191.935 25.9162 191.727 25.9163C191.719 25.9163 191.716 25.9117 191.71 25.9117H189.935V44.8741H191.85L191.856 44.8734C192.252 44.8722 192.633 44.7212 192.924 44.4507C193.214 44.1801 193.392 43.8098 193.422 43.4136V36.0997C193.422 31.4902 195.203 28.2927 199.171 28.2927C202.213 28.4776 203.175 30.6329 203.175 35.0582V44.8734L205.084 44.8741ZM223.854 25.9117C223.845 25.9117 223.843 25.9163 223.834 25.9163C223.101 25.9163 222.387 26.4224 222.08 27.1064L217.284 41.6034H217.205L212.515 27.1141C212.207 26.4263 211.492 25.9163 210.753 25.9163C210.748 25.9163 210.742 25.9117 210.737 25.9117H208.306L214.723 43.6108C214.946 44.2432 215.393 45.2107 215.393 45.6182C215.393 45.9903 214.352 50.3016 211.236 50.3016C211.158 50.3016 211.082 50.2947 211.005 50.2885C210.211 50.2446 209.611 50.8008 209.476 51.6589L209.382 52.8683C210.012 52.98 210.646 53.1286 211.757 53.1286C216.355 53.1286 217.729 48.9267 219.028 45.2831L226 25.9109L223.854 25.9117Z" fill="white"/>
</svg>
